<?xml version="1.0" encoding="UTF-8" standalone="no"?>
<!DOCTYPE svg PUBLIC "-//W3C//DTD SVG 1.1//EN"
 "http://www.w3.org/Graphics/SVG/1.1/DTD/svg11.dtd">
<!-- Generated by graphviz version 2.42.3 (20191010.1750)
 -->
<!-- Title: finite_state_machine Pages: 1 -->
<svg width="284pt" height="242pt"
 viewBox="0.00 0.00 284.00 242.00" xmlns="http://www.w3.org/2000/svg" xmlns:xlink="http://www.w3.org/1999/xlink">
<g id="graph0" class="graph" transform="scale(1 1) rotate(0) translate(4 238)">
<title>finite_state_machine</title>
<polygon fill="white" stroke="transparent" points="-4,4 -4,-238 280,-238 280,4 -4,4"/>
<!-- 4 -->
<g id="node1" class="node">
<title>4</title>
<ellipse fill="none" stroke="black" cx="98" cy="-202" rx="18" ry="18"/>
<text text-anchor="middle" x="98" y="-198.3" font-family="Helvetica,Arial,sans-serif" font-size="14.00">4</text>
</g>
<!-- 7 -->
<g id="node2" class="node">
<title>7</title>
<ellipse fill="none" stroke="black" cx="178" cy="-118" rx="18" ry="18"/>
<text text-anchor="middle" x="178" y="-114.3" font-family="Helvetica,Arial,sans-serif" font-size="14.00">7</text>
</g>
<!-- 4&#45;&gt;7 -->
<g id="edge1" class="edge">
<title>4&#45;&gt;7</title>
<path fill="none" stroke="black" d="M114.52,-194.11C123.27,-189.15 134.02,-182.15 142,-174 152.61,-163.16 151.96,-157.86 160,-145 160.69,-143.89 161.4,-142.76 162.12,-141.61"/>
<polygon fill="black" stroke="black" points="165.27,-143.17 167.63,-132.84 159.35,-139.45 165.27,-143.17"/>
<text text-anchor="middle" x="138" y="-183.8" font-family="Helvetica,Arial,sans-serif" font-size="14.00">0</text>
</g>
<!-- 5 -->
<g id="node3" class="node">
<title>5</title>
<ellipse fill="none" stroke="black" cx="178" cy="-172" rx="18" ry="18"/>
<text text-anchor="middle" x="178" y="-168.3" font-family="Helvetica,Arial,sans-serif" font-size="14.00">5</text>
</g>
<!-- 4&#45;&gt;5 -->
<g id="edge2" class="edge">
<title>4&#45;&gt;5</title>
<path fill="none" stroke="black" d="M112.86,-212.91C121.44,-218.27 132.58,-222.67 142,-218 151.11,-213.48 158.49,-205.33 164.09,-197.14"/>
<polygon fill="black" stroke="black" points="167.21,-198.74 169.46,-188.39 161.24,-195.08 167.21,-198.74"/>
<text text-anchor="middle" x="138" y="-222.8" font-family="Helvetica,Arial,sans-serif" font-size="14.00">1</text>
</g>
<!-- 8 -->
<g id="node8" class="node">
<title>8</title>
<ellipse fill="none" stroke="black" cx="258" cy="-118" rx="18" ry="18"/>
<text text-anchor="middle" x="258" y="-114.3" font-family="Helvetica,Arial,sans-serif" font-size="14.00">8</text>
</g>
<!-- 7&#45;&gt;8 -->
<g id="edge8" class="edge">
<title>7&#45;&gt;8</title>
<path fill="none" stroke="black" d="M196.31,-118C206.11,-118 218.58,-118 229.67,-118"/>
<polygon fill="black" stroke="black" points="229.74,-121.5 239.74,-118 229.74,-114.5 229.74,-121.5"/>
<text text-anchor="middle" x="218" y="-121.8" font-family="Helvetica,Arial,sans-serif" font-size="14.00">2</text>
</g>
<!-- 5&#45;&gt;8 -->
<g id="edge10" class="edge">
<title>5&#45;&gt;8</title>
<path fill="none" stroke="black" d="M193.31,-162.1C204.74,-154.18 220.99,-142.93 234.21,-133.78"/>
<polygon fill="black" stroke="black" points="236.55,-136.41 242.78,-127.84 232.57,-130.66 236.55,-136.41"/>
<text text-anchor="middle" x="218" y="-149.8" font-family="Helvetica,Arial,sans-serif" font-size="14.00">1</text>
</g>
<!-- 2 -->
<g id="node4" class="node">
<title>2</title>
<ellipse fill="none" stroke="black" cx="98" cy="-83" rx="18" ry="18"/>
<text text-anchor="middle" x="98" y="-79.3" font-family="Helvetica,Arial,sans-serif" font-size="14.00">2</text>
</g>
<!-- 2&#45;&gt;7 -->
<g id="edge3" class="edge">
<title>2&#45;&gt;7</title>
<path fill="none" stroke="black" d="M114.78,-90.08C125.46,-94.87 139.79,-101.3 152.01,-106.78"/>
<polygon fill="black" stroke="black" points="150.68,-110.03 161.24,-110.93 153.55,-103.64 150.68,-110.03"/>
<text text-anchor="middle" x="138" y="-104.8" font-family="Helvetica,Arial,sans-serif" font-size="14.00">1</text>
</g>
<!-- 6 -->
<g id="node5" class="node">
<title>6</title>
<ellipse fill="none" stroke="black" cx="178" cy="-50" rx="18" ry="18"/>
<text text-anchor="middle" x="178" y="-46.3" font-family="Helvetica,Arial,sans-serif" font-size="14.00">6</text>
</g>
<!-- 2&#45;&gt;6 -->
<g id="edge4" class="edge">
<title>2&#45;&gt;6</title>
<path fill="none" stroke="black" d="M109.76,-69.29C116.02,-62.43 124.53,-54.81 134,-51 138.98,-49 144.56,-48.04 150,-47.7"/>
<polygon fill="black" stroke="black" points="150.12,-51.2 160.11,-47.7 150.11,-44.2 150.12,-51.2"/>
<text text-anchor="middle" x="138" y="-54.8" font-family="Helvetica,Arial,sans-serif" font-size="14.00">0</text>
</g>
<!-- 6&#45;&gt;8 -->
<g id="edge9" class="edge">
<title>6&#45;&gt;8</title>
<path fill="none" stroke="black" d="M192.23,-61.54C204.29,-72.05 222.31,-87.76 236.28,-99.94"/>
<polygon fill="black" stroke="black" points="234.13,-102.7 243.96,-106.64 238.73,-97.43 234.13,-102.7"/>
<text text-anchor="middle" x="218" y="-89.8" font-family="Helvetica,Arial,sans-serif" font-size="14.00">1</text>
</g>
<!-- 1 -->
<g id="node6" class="node">
<title>1</title>
<ellipse fill="none" stroke="black" cx="98" cy="-137" rx="18" ry="18"/>
<text text-anchor="middle" x="98" y="-133.3" font-family="Helvetica,Arial,sans-serif" font-size="14.00">1</text>
</g>
<!-- 1&#45;&gt;7 -->
<g id="edge5" class="edge">
<title>1&#45;&gt;7</title>
<path fill="none" stroke="black" d="M115.32,-132.07C121.18,-130.37 127.87,-128.52 134,-127 139.23,-125.71 144.86,-124.44 150.25,-123.29"/>
<polygon fill="black" stroke="black" points="151.11,-126.68 160.19,-121.23 149.69,-119.83 151.11,-126.68"/>
<text text-anchor="middle" x="138" y="-130.8" font-family="Helvetica,Arial,sans-serif" font-size="14.00">1</text>
</g>
<!-- 1&#45;&gt;5 -->
<g id="edge6" class="edge">
<title>1&#45;&gt;5</title>
<path fill="none" stroke="black" d="M114.78,-144.08C125.46,-148.87 139.79,-155.3 152.01,-160.78"/>
<polygon fill="black" stroke="black" points="150.68,-164.03 161.24,-164.93 153.55,-157.64 150.68,-164.03"/>
<text text-anchor="middle" x="138" y="-158.8" font-family="Helvetica,Arial,sans-serif" font-size="14.00">0</text>
</g>
<!-- 3 -->
<g id="node7" class="node">
<title>3</title>
<ellipse fill="none" stroke="black" cx="98" cy="-18" rx="18" ry="18"/>
<text text-anchor="middle" x="98" y="-14.3" font-family="Helvetica,Arial,sans-serif" font-size="14.00">3</text>
</g>
<!-- 3&#45;&gt;6 -->
<g id="edge7" class="edge">
<title>3&#45;&gt;6</title>
<path fill="none" stroke="black" d="M115.09,-12.34C123.42,-10.34 133.58,-9.37 142,-13 149.26,-16.13 155.71,-21.58 161.04,-27.35"/>
<polygon fill="black" stroke="black" points="158.51,-29.77 167.58,-35.24 163.89,-25.31 158.51,-29.77"/>
<text text-anchor="middle" x="138" y="-16.8" font-family="Helvetica,Arial,sans-serif" font-size="14.00">1</text>
</g>
<!-- 0 -->
<g id="node9" class="node">
<title>0</title>
<ellipse fill="none" stroke="black" cx="18" cy="-110" rx="18" ry="18"/>
<text text-anchor="middle" x="18" y="-106.3" font-family="Helvetica,Arial,sans-serif" font-size="14.00">0</text>
</g>
<!-- 0&#45;&gt;4 -->
<g id="edge11" class="edge">
<title>0&#45;&gt;4</title>
<path fill="none" stroke="black" d="M30.51,-123.57C43.26,-138.61 63.97,-163.04 78.9,-180.65"/>
<polygon fill="black" stroke="black" points="76.56,-183.3 85.7,-188.67 81.9,-178.78 76.56,-183.3"/>
<text text-anchor="middle" x="58" y="-161.8" font-family="Helvetica,Arial,sans-serif" font-size="14.00">1</text>
</g>
<!-- 0&#45;&gt;2 -->
<g id="edge13" class="edge">
<title>0&#45;&gt;2</title>
<path fill="none" stroke="black" d="M34.92,-103.29C40.86,-100.88 47.7,-98.21 54,-96 59.43,-94.1 65.3,-92.21 70.9,-90.49"/>
<polygon fill="black" stroke="black" points="71.98,-93.82 80.56,-87.61 69.97,-87.12 71.98,-93.82"/>
<text text-anchor="middle" x="58" y="-99.8" font-family="Helvetica,Arial,sans-serif" font-size="14.00">1</text>
</g>
<!-- 0&#45;&gt;1 -->
<g id="edge14" class="edge">
<title>0&#45;&gt;1</title>
<path fill="none" stroke="black" d="M35.16,-115.59C45.62,-119.21 59.46,-124.01 71.4,-128.14"/>
<polygon fill="black" stroke="black" points="70.26,-131.45 80.86,-131.41 72.55,-124.83 70.26,-131.45"/>
<text text-anchor="middle" x="58" y="-127.8" font-family="Helvetica,Arial,sans-serif" font-size="14.00">1</text>
</g>
<!-- 0&#45;&gt;3 -->
<g id="edge12" class="edge">
<title>0&#45;&gt;3</title>
<path fill="none" stroke="black" d="M30.51,-96.43C43.26,-81.39 63.97,-56.96 78.9,-39.35"/>
<polygon fill="black" stroke="black" points="81.9,-41.22 85.7,-31.33 76.56,-36.7 81.9,-41.22"/>
<text text-anchor="middle" x="58" y="-69.8" font-family="Helvetica,Arial,sans-serif" font-size="14.00">1</text>
</g>
</g>
</svg>
