<?xml version="1.0" encoding="UTF-8" standalone="no"?>
<!DOCTYPE svg PUBLIC "-//W3C//DTD SVG 1.1//EN"
 "http://www.w3.org/Graphics/SVG/1.1/DTD/svg11.dtd">
<!-- Generated by graphviz version 2.42.3 (20191010.1750)
 -->
<!-- Title: finite_state_machine Pages: 1 -->
<svg width="284pt" height="218pt"
 viewBox="0.00 0.00 284.00 218.00" xmlns="http://www.w3.org/2000/svg" xmlns:xlink="http://www.w3.org/1999/xlink">
<g id="graph0" class="graph" transform="scale(1 1) rotate(0) translate(4 214)">
<title>finite_state_machine</title>
<polygon fill="white" stroke="transparent" points="-4,4 -4,-214 280,-214 280,4 -4,4"/>
<!-- 4 -->
<g id="node1" class="node">
<title>4</title>
<ellipse fill="none" stroke="black" cx="98" cy="-180" rx="18" ry="18"/>
<text text-anchor="middle" x="98" y="-176.3" font-family="Helvetica,Arial,sans-serif" font-size="14.00">4</text>
</g>
<!-- 7 -->
<g id="node2" class="node">
<title>7</title>
<ellipse fill="none" stroke="black" cx="178" cy="-93" rx="18" ry="18"/>
<text text-anchor="middle" x="178" y="-89.3" font-family="Helvetica,Arial,sans-serif" font-size="14.00">7</text>
</g>
<!-- 4&#45;&gt;7 -->
<g id="edge1" class="edge">
<title>4&#45;&gt;7</title>
<path fill="none" stroke="black" d="M114.79,-173.51C123.64,-169.26 134.39,-163.01 142,-155 154.05,-142.32 151.33,-135.19 160,-120 160.65,-118.86 161.32,-117.71 162.01,-116.54"/>
<polygon fill="black" stroke="black" points="165.18,-118.07 167.41,-107.71 159.21,-114.42 165.18,-118.07"/>
<text text-anchor="middle" x="138" y="-164.8" font-family="Helvetica,Arial,sans-serif" font-size="14.00">0</text>
</g>
<!-- 5 -->
<g id="node3" class="node">
<title>5</title>
<ellipse fill="none" stroke="black" cx="178" cy="-147" rx="18" ry="18"/>
<text text-anchor="middle" x="178" y="-143.3" font-family="Helvetica,Arial,sans-serif" font-size="14.00">5</text>
</g>
<!-- 4&#45;&gt;5 -->
<g id="edge2" class="edge">
<title>4&#45;&gt;5</title>
<path fill="none" stroke="black" d="M113.39,-189.62C121.97,-194.08 132.92,-197.5 142,-193 151.11,-188.48 158.49,-180.33 164.09,-172.14"/>
<polygon fill="black" stroke="black" points="167.21,-173.74 169.46,-163.39 161.24,-170.08 167.21,-173.74"/>
<text text-anchor="middle" x="138" y="-198.8" font-family="Helvetica,Arial,sans-serif" font-size="14.00">1</text>
</g>
<!-- 8 -->
<g id="node8" class="node">
<title>8</title>
<ellipse fill="none" stroke="black" cx="258" cy="-93" rx="18" ry="18"/>
<text text-anchor="middle" x="258" y="-89.3" font-family="Helvetica,Arial,sans-serif" font-size="14.00">8</text>
</g>
<!-- 7&#45;&gt;8 -->
<g id="edge7" class="edge">
<title>7&#45;&gt;8</title>
<path fill="none" stroke="black" d="M196.31,-93C206.11,-93 218.58,-93 229.67,-93"/>
<polygon fill="black" stroke="black" points="229.74,-96.5 239.74,-93 229.74,-89.5 229.74,-96.5"/>
<text text-anchor="middle" x="218" y="-96.8" font-family="Helvetica,Arial,sans-serif" font-size="14.00">2</text>
</g>
<!-- 5&#45;&gt;8 -->
<g id="edge9" class="edge">
<title>5&#45;&gt;8</title>
<path fill="none" stroke="black" d="M193.31,-137.1C204.74,-129.18 220.99,-117.93 234.21,-108.78"/>
<polygon fill="black" stroke="black" points="236.55,-111.41 242.78,-102.84 232.57,-105.66 236.55,-111.41"/>
<text text-anchor="middle" x="218" y="-124.8" font-family="Helvetica,Arial,sans-serif" font-size="14.00">1</text>
</g>
<!-- 2 -->
<g id="node4" class="node">
<title>2</title>
<ellipse fill="none" stroke="black" cx="98" cy="-72" rx="18" ry="18"/>
<text text-anchor="middle" x="98" y="-68.3" font-family="Helvetica,Arial,sans-serif" font-size="14.00">2</text>
</g>
<!-- 2&#45;&gt;7 -->
<g id="edge3" class="edge">
<title>2&#45;&gt;7</title>
<path fill="none" stroke="black" d="M114.85,-65.14C123.11,-62.53 133.28,-60.86 142,-64 147.57,-66.01 152.88,-69.33 157.6,-73.02"/>
<polygon fill="black" stroke="black" points="155.58,-75.9 165.4,-79.86 160.19,-70.64 155.58,-75.9"/>
<text text-anchor="middle" x="138" y="-67.8" font-family="Helvetica,Arial,sans-serif" font-size="14.00">1</text>
</g>
<!-- 1 -->
<g id="node5" class="node">
<title>1</title>
<ellipse fill="none" stroke="black" cx="98" cy="-126" rx="18" ry="18"/>
<text text-anchor="middle" x="98" y="-122.3" font-family="Helvetica,Arial,sans-serif" font-size="14.00">1</text>
</g>
<!-- 1&#45;&gt;7 -->
<g id="edge4" class="edge">
<title>1&#45;&gt;7</title>
<path fill="none" stroke="black" d="M114.78,-119.32C125.46,-114.8 139.79,-108.74 152.01,-103.57"/>
<polygon fill="black" stroke="black" points="153.39,-106.79 161.24,-99.67 150.67,-100.34 153.39,-106.79"/>
<text text-anchor="middle" x="138" y="-113.8" font-family="Helvetica,Arial,sans-serif" font-size="14.00">1</text>
</g>
<!-- 1&#45;&gt;5 -->
<g id="edge5" class="edge">
<title>1&#45;&gt;5</title>
<path fill="none" stroke="black" d="M115.54,-130.45C125.78,-133.21 139.15,-136.81 150.8,-139.95"/>
<polygon fill="black" stroke="black" points="149.92,-143.33 160.48,-142.55 151.74,-136.57 149.92,-143.33"/>
<text text-anchor="middle" x="138" y="-140.8" font-family="Helvetica,Arial,sans-serif" font-size="14.00">0</text>
</g>
<!-- 3 -->
<g id="node6" class="node">
<title>3</title>
<ellipse fill="none" stroke="black" cx="98" cy="-18" rx="18" ry="18"/>
<text text-anchor="middle" x="98" y="-14.3" font-family="Helvetica,Arial,sans-serif" font-size="14.00">3</text>
</g>
<!-- 6 -->
<g id="node7" class="node">
<title>6</title>
<ellipse fill="none" stroke="black" cx="178" cy="-35" rx="18" ry="18"/>
<text text-anchor="middle" x="178" y="-31.3" font-family="Helvetica,Arial,sans-serif" font-size="14.00">6</text>
</g>
<!-- 3&#45;&gt;6 -->
<g id="edge6" class="edge">
<title>3&#45;&gt;6</title>
<path fill="none" stroke="black" d="M115.8,-20.85C123.76,-22.28 133.4,-24.1 142,-26 144.72,-26.6 147.55,-27.27 150.37,-27.95"/>
<polygon fill="black" stroke="black" points="149.77,-31.41 160.32,-30.47 151.48,-24.62 149.77,-31.41"/>
<text text-anchor="middle" x="138" y="-29.8" font-family="Helvetica,Arial,sans-serif" font-size="14.00">1</text>
</g>
<!-- 6&#45;&gt;8 -->
<g id="edge8" class="edge">
<title>6&#45;&gt;8</title>
<path fill="none" stroke="black" d="M192.94,-45.37C204.59,-54.03 221.41,-66.53 234.89,-76.56"/>
<polygon fill="black" stroke="black" points="233.06,-79.56 243.18,-82.72 237.24,-73.94 233.06,-79.56"/>
<text text-anchor="middle" x="218" y="-68.8" font-family="Helvetica,Arial,sans-serif" font-size="14.00">1</text>
</g>
<!-- 0 -->
<g id="node9" class="node">
<title>0</title>
<ellipse fill="none" stroke="black" cx="18" cy="-99" rx="18" ry="18"/>
<text text-anchor="middle" x="18" y="-95.3" font-family="Helvetica,Arial,sans-serif" font-size="14.00">0</text>
</g>
<!-- 0&#45;&gt;4 -->
<g id="edge10" class="edge">
<title>0&#45;&gt;4</title>
<path fill="none" stroke="black" d="M31.19,-111.66C43.67,-124.61 63.24,-144.94 77.8,-160.07"/>
<polygon fill="black" stroke="black" points="75.44,-162.66 84.9,-167.43 80.48,-157.8 75.44,-162.66"/>
<text text-anchor="middle" x="58" y="-144.8" font-family="Helvetica,Arial,sans-serif" font-size="14.00">1</text>
</g>
<!-- 0&#45;&gt;2 -->
<g id="edge12" class="edge">
<title>0&#45;&gt;2</title>
<path fill="none" stroke="black" d="M34.92,-92.29C40.86,-89.88 47.7,-87.21 54,-85 59.43,-83.1 65.3,-81.21 70.9,-79.49"/>
<polygon fill="black" stroke="black" points="71.98,-82.82 80.56,-76.61 69.97,-76.12 71.98,-82.82"/>
<text text-anchor="middle" x="58" y="-88.8" font-family="Helvetica,Arial,sans-serif" font-size="14.00">1</text>
</g>
<!-- 0&#45;&gt;1 -->
<g id="edge13" class="edge">
<title>0&#45;&gt;1</title>
<path fill="none" stroke="black" d="M35.16,-104.59C45.62,-108.21 59.46,-113.01 71.4,-117.14"/>
<polygon fill="black" stroke="black" points="70.26,-120.45 80.86,-120.41 72.55,-113.83 70.26,-120.45"/>
<text text-anchor="middle" x="58" y="-116.8" font-family="Helvetica,Arial,sans-serif" font-size="14.00">1</text>
</g>
<!-- 0&#45;&gt;3 -->
<g id="edge11" class="edge">
<title>0&#45;&gt;3</title>
<path fill="none" stroke="black" d="M31.19,-86.34C43.67,-73.39 63.24,-53.06 77.8,-37.93"/>
<polygon fill="black" stroke="black" points="80.48,-40.2 84.9,-30.57 75.44,-35.34 80.48,-40.2"/>
<text text-anchor="middle" x="58" y="-63.8" font-family="Helvetica,Arial,sans-serif" font-size="14.00">1</text>
</g>
</g>
</svg>
