<?xml version="1.0" encoding="UTF-8" standalone="no"?>
<!DOCTYPE svg PUBLIC "-//W3C//DTD SVG 1.1//EN"
 "http://www.w3.org/Graphics/SVG/1.1/DTD/svg11.dtd">
<!-- Generated by graphviz version 2.42.3 (20191010.1750)
 -->
<!-- Title: finite_state_machine Pages: 1 -->
<svg width="468pt" height="205pt"
 viewBox="0.00 0.00 468.00 205.00" xmlns="http://www.w3.org/2000/svg" xmlns:xlink="http://www.w3.org/1999/xlink">
<g id="graph0" class="graph" transform="scale(1 1) rotate(0) translate(4 201)">
<title>finite_state_machine</title>
<polygon fill="white" stroke="transparent" points="-4,4 -4,-201 464,-201 464,4 -4,4"/>
<!-- 1 -->
<g id="node1" class="node">
<title>1</title>
<ellipse fill="none" stroke="black" cx="18" cy="-124" rx="18" ry="18"/>
<text text-anchor="middle" x="18" y="-120.3" font-family="Helvetica,Arial,sans-serif" font-size="14.00">1</text>
</g>
<!-- 5 -->
<g id="node2" class="node">
<title>5</title>
<ellipse fill="none" stroke="black" cx="106" cy="-85" rx="18" ry="18"/>
<text text-anchor="middle" x="106" y="-81.3" font-family="Helvetica,Arial,sans-serif" font-size="14.00">5</text>
</g>
<!-- 1&#45;&gt;5 -->
<g id="edge1" class="edge">
<title>1&#45;&gt;5</title>
<path fill="none" stroke="black" d="M34.77,-116.85C47.38,-111.13 65.29,-103.01 79.87,-96.4"/>
<polygon fill="black" stroke="black" points="81.66,-99.43 89.33,-92.11 78.77,-93.05 81.66,-99.43"/>
<text text-anchor="middle" x="62" y="-110.8" font-family="Helvetica,Arial,sans-serif" font-size="14.00">21</text>
</g>
<!-- 4 -->
<g id="node3" class="node">
<title>4</title>
<ellipse fill="none" stroke="black" cx="186" cy="-109" rx="18" ry="18"/>
<text text-anchor="middle" x="186" y="-105.3" font-family="Helvetica,Arial,sans-serif" font-size="14.00">4</text>
</g>
<!-- 1&#45;&gt;4 -->
<g id="edge2" class="edge">
<title>1&#45;&gt;4</title>
<path fill="none" stroke="black" d="M36.09,-124.59C41.78,-124.76 48.16,-124.92 54,-125 96.85,-125.61 107.66,-122.6 150,-116 152.72,-115.58 155.55,-115.09 158.37,-114.57"/>
<polygon fill="black" stroke="black" points="159.17,-117.98 168.32,-112.64 157.83,-111.11 159.17,-117.98"/>
<text text-anchor="middle" x="106" y="-127.8" font-family="Helvetica,Arial,sans-serif" font-size="14.00">1</text>
</g>
<!-- 5&#45;&gt;4 -->
<g id="edge9" class="edge">
<title>5&#45;&gt;4</title>
<path fill="none" stroke="black" d="M123.54,-90.09C133.78,-93.24 147.15,-97.35 158.8,-100.94"/>
<polygon fill="black" stroke="black" points="157.89,-104.32 168.48,-103.92 159.95,-97.63 157.89,-104.32"/>
<text text-anchor="middle" x="146" y="-100.8" font-family="Helvetica,Arial,sans-serif" font-size="14.00">8</text>
</g>
<!-- 4&#45;&gt;5 -->
<g id="edge10" class="edge">
<title>4&#45;&gt;5</title>
<path fill="none" stroke="black" d="M174.27,-95.2C168.03,-88.32 159.52,-80.69 150,-77 144.6,-74.9 138.61,-74.77 132.85,-75.61"/>
<polygon fill="black" stroke="black" points="131.83,-72.25 122.91,-77.96 133.45,-79.06 131.83,-72.25"/>
<text text-anchor="middle" x="146" y="-80.8" font-family="Helvetica,Arial,sans-serif" font-size="14.00">6</text>
</g>
<!-- 2 -->
<g id="node5" class="node">
<title>2</title>
<ellipse fill="none" stroke="black" cx="274" cy="-71" rx="18" ry="18"/>
<text text-anchor="middle" x="274" y="-67.3" font-family="Helvetica,Arial,sans-serif" font-size="14.00">2</text>
</g>
<!-- 4&#45;&gt;2 -->
<g id="edge11" class="edge">
<title>4&#45;&gt;2</title>
<path fill="none" stroke="black" d="M203.12,-102.15C213.17,-97.85 226.37,-92.17 238,-87 241.27,-85.55 244.71,-84 248.1,-82.46"/>
<polygon fill="black" stroke="black" points="249.71,-85.58 257.35,-78.24 246.8,-79.21 249.71,-85.58"/>
<text text-anchor="middle" x="230" y="-96.8" font-family="Helvetica,Arial,sans-serif" font-size="14.00">8</text>
</g>
<!-- 3 -->
<g id="node4" class="node">
<title>3</title>
<ellipse fill="none" stroke="black" cx="442" cy="-122" rx="18" ry="18"/>
<text text-anchor="middle" x="442" y="-118.3" font-family="Helvetica,Arial,sans-serif" font-size="14.00">3</text>
</g>
<!-- 3&#45;&gt;1 -->
<g id="edge3" class="edge">
<title>3&#45;&gt;1</title>
<path fill="none" stroke="black" d="M430.44,-135.92C415.67,-153.64 387.04,-182 355,-182 105,-182 105,-182 105,-182 77.92,-182 52.97,-161.98 37,-145.47"/>
<polygon fill="black" stroke="black" points="39.26,-142.75 29.92,-137.75 34.1,-147.48 39.26,-142.75"/>
<text text-anchor="middle" x="230" y="-185.8" font-family="Helvetica,Arial,sans-serif" font-size="14.00">11</text>
</g>
<!-- 3&#45;&gt;4 -->
<g id="edge5" class="edge">
<title>3&#45;&gt;4</title>
<path fill="none" stroke="black" d="M424,-122.24C414.08,-122.31 401.33,-122.31 390,-122 326.92,-120.25 252.99,-114.61 214.09,-111.36"/>
<polygon fill="black" stroke="black" points="214.35,-107.87 204.09,-110.51 213.76,-114.85 214.35,-107.87"/>
<text text-anchor="middle" x="314" y="-121.8" font-family="Helvetica,Arial,sans-serif" font-size="14.00">5</text>
</g>
<!-- 3&#45;&gt;2 -->
<g id="edge4" class="edge">
<title>3&#45;&gt;2</title>
<path fill="none" stroke="black" d="M424.54,-116.94C395.76,-108.1 336.03,-89.75 301.4,-79.11"/>
<polygon fill="black" stroke="black" points="302.11,-75.67 291.52,-76.08 300.05,-82.36 302.11,-75.67"/>
<text text-anchor="middle" x="354" y="-103.8" font-family="Helvetica,Arial,sans-serif" font-size="14.00">2</text>
</g>
<!-- 2&#45;&gt;4 -->
<g id="edge12" class="edge">
<title>2&#45;&gt;4</title>
<path fill="none" stroke="black" d="M256.65,-66.21C246.26,-64.08 232.79,-63.02 222,-68 213.99,-71.69 207.14,-78.22 201.67,-85"/>
<polygon fill="black" stroke="black" points="198.53,-83.36 195.51,-93.52 204.21,-87.47 198.53,-83.36"/>
<text text-anchor="middle" x="230" y="-71.8" font-family="Helvetica,Arial,sans-serif" font-size="14.00">4</text>
</g>
<!-- 0 -->
<g id="node6" class="node">
<title>0</title>
<ellipse fill="none" stroke="black" cx="354" cy="-40" rx="18" ry="18"/>
<text text-anchor="middle" x="354" y="-36.3" font-family="Helvetica,Arial,sans-serif" font-size="14.00">0</text>
</g>
<!-- 2&#45;&gt;0 -->
<g id="edge13" class="edge">
<title>2&#45;&gt;0</title>
<path fill="none" stroke="black" d="M291.16,-64.58C301.69,-60.39 315.65,-54.85 327.64,-50.08"/>
<polygon fill="black" stroke="black" points="329.13,-53.25 337.13,-46.31 326.54,-46.75 329.13,-53.25"/>
<text text-anchor="middle" x="314" y="-59.8" font-family="Helvetica,Arial,sans-serif" font-size="14.00">8</text>
</g>
<!-- 0&#45;&gt;1 -->
<g id="edge6" class="edge">
<title>0&#45;&gt;1</title>
<path fill="none" stroke="black" d="M339.96,-28.43C325.25,-16.62 300.11,0 275,0 105,0 105,0 105,0 58.38,0 35.02,-59.91 25.11,-96.44"/>
<polygon fill="black" stroke="black" points="21.62,-95.94 22.56,-106.5 28.41,-97.66 21.62,-95.94"/>
<text text-anchor="middle" x="186" y="-3.8" font-family="Helvetica,Arial,sans-serif" font-size="14.00">7</text>
</g>
<!-- 0&#45;&gt;3 -->
<g id="edge7" class="edge">
<title>0&#45;&gt;3</title>
<path fill="none" stroke="black" d="M370.39,-47.55C381.14,-53.29 395.4,-61.92 406,-72 413.86,-79.48 421.04,-88.98 426.82,-97.68"/>
<polygon fill="black" stroke="black" points="424,-99.77 432.3,-106.35 429.91,-96.02 424,-99.77"/>
<text text-anchor="middle" x="398" y="-75.8" font-family="Helvetica,Arial,sans-serif" font-size="14.00">10</text>
</g>
<!-- 0&#45;&gt;2 -->
<g id="edge8" class="edge">
<title>0&#45;&gt;2</title>
<path fill="none" stroke="black" d="M336.93,-33.8C328.61,-31.56 318.45,-30.36 310,-34 302.74,-37.13 296.29,-42.58 290.96,-48.35"/>
<polygon fill="black" stroke="black" points="288.11,-46.31 284.42,-56.24 293.49,-50.77 288.11,-46.31"/>
<text text-anchor="middle" x="314" y="-37.8" font-family="Helvetica,Arial,sans-serif" font-size="14.00">0</text>
</g>
</g>
</svg>
