<?xml version="1.0" encoding="UTF-8" standalone="no"?>
<!DOCTYPE svg PUBLIC "-//W3C//DTD SVG 1.1//EN"
 "http://www.w3.org/Graphics/SVG/1.1/DTD/svg11.dtd">
<!-- Generated by graphviz version 2.42.3 (20191010.1750)
 -->
<!-- Title: finite_state_machine Pages: 1 -->
<svg width="524pt" height="225pt"
 viewBox="0.00 0.00 524.00 225.00" xmlns="http://www.w3.org/2000/svg" xmlns:xlink="http://www.w3.org/1999/xlink">
<g id="graph0" class="graph" transform="scale(1 1) rotate(0) translate(4 221)">
<title>finite_state_machine</title>
<polygon fill="white" stroke="transparent" points="-4,4 -4,-221 520,-221 520,4 -4,4"/>
<!-- 2 -->
<g id="node1" class="node">
<title>2</title>
<ellipse fill="none" stroke="black" cx="178" cy="-165" rx="18" ry="18"/>
<text text-anchor="middle" x="178" y="-161.3" font-family="Helvetica,Arial,sans-serif" font-size="14.00">2</text>
</g>
<!-- 3 -->
<g id="node2" class="node">
<title>3</title>
<ellipse fill="none" stroke="black" cx="258" cy="-110" rx="18" ry="18"/>
<text text-anchor="middle" x="258" y="-106.3" font-family="Helvetica,Arial,sans-serif" font-size="14.00">3</text>
</g>
<!-- 2&#45;&gt;3 -->
<g id="edge1" class="edge">
<title>2&#45;&gt;3</title>
<path fill="none" stroke="black" d="M193.31,-154.91C204.85,-146.77 221.3,-135.17 234.59,-125.8"/>
<polygon fill="black" stroke="black" points="236.63,-128.65 242.78,-120.02 232.59,-122.93 236.63,-128.65"/>
<text text-anchor="middle" x="218" y="-142.8" font-family="Helvetica,Arial,sans-serif" font-size="14.00">3</text>
</g>
<!-- 4 -->
<g id="node4" class="node">
<title>4</title>
<ellipse fill="none" stroke="black" cx="338" cy="-173" rx="18" ry="18"/>
<text text-anchor="middle" x="338" y="-169.3" font-family="Helvetica,Arial,sans-serif" font-size="14.00">4</text>
</g>
<!-- 3&#45;&gt;4 -->
<g id="edge8" class="edge">
<title>3&#45;&gt;4</title>
<path fill="none" stroke="black" d="M272.62,-120.64C281.11,-127.3 292.24,-136.1 302,-144 306.52,-147.66 311.35,-151.62 315.92,-155.4"/>
<polygon fill="black" stroke="black" points="313.83,-158.22 323.76,-161.91 318.3,-152.83 313.83,-158.22"/>
<text text-anchor="middle" x="298" y="-147.8" font-family="Helvetica,Arial,sans-serif" font-size="14.00">0</text>
</g>
<!-- 5 -->
<g id="node5" class="node">
<title>5</title>
<ellipse fill="none" stroke="black" cx="418" cy="-110" rx="18" ry="18"/>
<text text-anchor="middle" x="418" y="-106.3" font-family="Helvetica,Arial,sans-serif" font-size="14.00">5</text>
</g>
<!-- 3&#45;&gt;5 -->
<g id="edge7" class="edge">
<title>3&#45;&gt;5</title>
<path fill="none" stroke="black" d="M276.21,-110C303.52,-110 357.01,-110 389.62,-110"/>
<polygon fill="black" stroke="black" points="389.81,-113.5 399.81,-110 389.81,-106.5 389.81,-113.5"/>
<text text-anchor="middle" x="338" y="-113.8" font-family="Helvetica,Arial,sans-serif" font-size="14.00">8</text>
</g>
<!-- 7 -->
<g id="node6" class="node">
<title>7</title>
<ellipse fill="none" stroke="black" cx="498" cy="-87" rx="18" ry="18"/>
<text text-anchor="middle" x="498" y="-83.3" font-family="Helvetica,Arial,sans-serif" font-size="14.00">7</text>
</g>
<!-- 3&#45;&gt;7 -->
<g id="edge9" class="edge">
<title>3&#45;&gt;7</title>
<path fill="none" stroke="black" d="M275.78,-105.72C302.05,-99.25 354.59,-87.31 400,-83 415.93,-81.49 420.01,-82.48 436,-83 447.02,-83.36 459.15,-84.09 469.66,-84.82"/>
<polygon fill="black" stroke="black" points="469.69,-88.34 479.92,-85.58 470.21,-81.35 469.69,-88.34"/>
<text text-anchor="middle" x="378" y="-89.8" font-family="Helvetica,Arial,sans-serif" font-size="14.00">0</text>
</g>
<!-- 6 -->
<g id="node7" class="node">
<title>6</title>
<ellipse fill="none" stroke="black" cx="338" cy="-18" rx="18" ry="18"/>
<text text-anchor="middle" x="338" y="-14.3" font-family="Helvetica,Arial,sans-serif" font-size="14.00">6</text>
</g>
<!-- 3&#45;&gt;6 -->
<g id="edge10" class="edge">
<title>3&#45;&gt;6</title>
<path fill="none" stroke="black" d="M263.1,-92.6C267.89,-75.8 277.37,-50.66 294,-35 298.64,-30.63 304.54,-27.33 310.48,-24.87"/>
<polygon fill="black" stroke="black" points="311.98,-28.05 320.27,-21.46 309.68,-21.44 311.98,-28.05"/>
<text text-anchor="middle" x="298" y="-38.8" font-family="Helvetica,Arial,sans-serif" font-size="14.00">0</text>
</g>
<!-- 1 -->
<g id="node3" class="node">
<title>1</title>
<ellipse fill="none" stroke="black" cx="98" cy="-119" rx="18" ry="18"/>
<text text-anchor="middle" x="98" y="-115.3" font-family="Helvetica,Arial,sans-serif" font-size="14.00">1</text>
</g>
<!-- 1&#45;&gt;2 -->
<g id="edge4" class="edge">
<title>1&#45;&gt;2</title>
<path fill="none" stroke="black" d="M114.15,-127.74C122.4,-132.52 132.78,-138.55 142,-144 145.71,-146.19 149.62,-148.52 153.45,-150.81"/>
<polygon fill="black" stroke="black" points="151.66,-153.82 162.04,-155.96 155.26,-147.82 151.66,-153.82"/>
<text text-anchor="middle" x="138" y="-147.8" font-family="Helvetica,Arial,sans-serif" font-size="14.00">0</text>
</g>
<!-- 1&#45;&gt;3 -->
<g id="edge3" class="edge">
<title>1&#45;&gt;3</title>
<path fill="none" stroke="black" d="M116.21,-118.02C143.52,-116.46 197.01,-113.42 229.62,-111.56"/>
<polygon fill="black" stroke="black" points="230.03,-115.04 239.81,-110.98 229.63,-108.05 230.03,-115.04"/>
<text text-anchor="middle" x="178" y="-118.8" font-family="Helvetica,Arial,sans-serif" font-size="14.00">5</text>
</g>
<!-- 1&#45;&gt;4 -->
<g id="edge2" class="edge">
<title>1&#45;&gt;4</title>
<path fill="none" stroke="black" d="M109.62,-133C125.2,-153.33 153.14,-188.94 160,-192 210.09,-214.36 275.8,-196.59 311.4,-183.58"/>
<polygon fill="black" stroke="black" points="312.92,-186.74 321.01,-179.91 310.42,-180.2 312.92,-186.74"/>
<text text-anchor="middle" x="218" y="-205.8" font-family="Helvetica,Arial,sans-serif" font-size="14.00">3</text>
</g>
<!-- 4&#45;&gt;2 -->
<g id="edge16" class="edge">
<title>4&#45;&gt;2</title>
<path fill="none" stroke="black" d="M319.81,-172.13C292.52,-170.75 239.03,-168.04 206.41,-166.39"/>
<polygon fill="black" stroke="black" points="206.37,-162.88 196.21,-165.87 206.02,-169.87 206.37,-162.88"/>
<text text-anchor="middle" x="258" y="-172.8" font-family="Helvetica,Arial,sans-serif" font-size="14.00">2</text>
</g>
<!-- 4&#45;&gt;5 -->
<g id="edge14" class="edge">
<title>4&#45;&gt;5</title>
<path fill="none" stroke="black" d="M352.24,-161.91C358.76,-156.48 366.76,-149.86 374,-144 380.87,-138.44 388.4,-132.45 395.23,-127.06"/>
<polygon fill="black" stroke="black" points="397.69,-129.58 403.38,-120.64 393.36,-124.08 397.69,-129.58"/>
<text text-anchor="middle" x="378" y="-147.8" font-family="Helvetica,Arial,sans-serif" font-size="14.00">1</text>
</g>
<!-- 4&#45;&gt;7 -->
<g id="edge15" class="edge">
<title>4&#45;&gt;7</title>
<path fill="none" stroke="black" d="M355.43,-167.96C363.48,-165.41 373.3,-162.18 382,-159 406.34,-150.09 413.37,-149.63 436,-137 448.5,-130.03 450.85,-126.98 462,-118 466.86,-114.09 471.96,-109.73 476.71,-105.54"/>
<polygon fill="black" stroke="black" points="479.16,-108.05 484.28,-98.78 474.5,-102.83 479.16,-108.05"/>
<text text-anchor="middle" x="418" y="-155.8" font-family="Helvetica,Arial,sans-serif" font-size="14.00">0</text>
</g>
<!-- 5&#45;&gt;7 -->
<g id="edge5" class="edge">
<title>5&#45;&gt;7</title>
<path fill="none" stroke="black" d="M435.54,-105.12C445.78,-102.1 459.15,-98.16 470.8,-94.72"/>
<polygon fill="black" stroke="black" points="471.88,-98.06 480.48,-91.87 469.9,-91.34 471.88,-98.06"/>
<text text-anchor="middle" x="458" y="-102.8" font-family="Helvetica,Arial,sans-serif" font-size="14.00">0</text>
</g>
<!-- 6&#45;&gt;7 -->
<g id="edge6" class="edge">
<title>6&#45;&gt;7</title>
<path fill="none" stroke="black" d="M356.41,-18.26C382.15,-19.5 430.65,-25.25 462,-50 467.88,-54.64 473.69,-60.25 478.85,-65.7"/>
<polygon fill="black" stroke="black" points="476.54,-68.36 485.86,-73.41 481.72,-63.65 476.54,-68.36"/>
<text text-anchor="middle" x="418" y="-38.8" font-family="Helvetica,Arial,sans-serif" font-size="14.00">0</text>
</g>
<!-- 0 -->
<g id="node8" class="node">
<title>0</title>
<ellipse fill="none" stroke="black" cx="18" cy="-119" rx="18" ry="18"/>
<text text-anchor="middle" x="18" y="-115.3" font-family="Helvetica,Arial,sans-serif" font-size="14.00">0</text>
</g>
<!-- 0&#45;&gt;2 -->
<g id="edge11" class="edge">
<title>0&#45;&gt;2</title>
<path fill="none" stroke="black" d="M34.01,-128C40.08,-131.41 47.24,-135.16 54,-138 85.39,-151.19 124.11,-158.33 149.63,-161.89"/>
<polygon fill="black" stroke="black" points="149.32,-165.38 159.69,-163.21 150.23,-158.44 149.32,-165.38"/>
<text text-anchor="middle" x="98" y="-158.8" font-family="Helvetica,Arial,sans-serif" font-size="14.00">1</text>
</g>
<!-- 0&#45;&gt;1 -->
<g id="edge12" class="edge">
<title>0&#45;&gt;1</title>
<path fill="none" stroke="black" d="M36.31,-119C46.11,-119 58.58,-119 69.67,-119"/>
<polygon fill="black" stroke="black" points="69.74,-122.5 79.74,-119 69.74,-115.5 69.74,-122.5"/>
<text text-anchor="middle" x="58" y="-122.8" font-family="Helvetica,Arial,sans-serif" font-size="14.00">8</text>
</g>
<!-- 0&#45;&gt;6 -->
<g id="edge13" class="edge">
<title>0&#45;&gt;6</title>
<path fill="none" stroke="black" d="M22.18,-101.33C29.23,-68.42 49.48,-1 97,-1 97,-1 97,-1 259,-1 276.68,-1 296.11,-5.22 311.15,-9.46"/>
<polygon fill="black" stroke="black" points="310.21,-12.83 320.79,-12.34 312.21,-6.12 310.21,-12.83"/>
<text text-anchor="middle" x="178" y="-4.8" font-family="Helvetica,Arial,sans-serif" font-size="14.00">0</text>
</g>
</g>
</svg>
