<?xml version="1.0" encoding="UTF-8" standalone="no"?>
<!DOCTYPE svg PUBLIC "-//W3C//DTD SVG 1.1//EN"
 "http://www.w3.org/Graphics/SVG/1.1/DTD/svg11.dtd">
<!-- Generated by graphviz version 2.42.3 (20191010.1750)
 -->
<!-- Title: finite_state_machine Pages: 1 -->
<svg width="364pt" height="141pt"
 viewBox="0.00 0.00 364.00 141.00" xmlns="http://www.w3.org/2000/svg" xmlns:xlink="http://www.w3.org/1999/xlink">
<g id="graph0" class="graph" transform="scale(1 1) rotate(0) translate(4 137)">
<title>finite_state_machine</title>
<polygon fill="white" stroke="transparent" points="-4,4 -4,-137 360,-137 360,4 -4,4"/>
<!-- 3 -->
<g id="node1" class="node">
<title>3</title>
<ellipse fill="none" stroke="black" cx="178" cy="-18" rx="18" ry="18"/>
<text text-anchor="middle" x="178" y="-14.3" font-family="Helvetica,Arial,sans-serif" font-size="14.00">3</text>
</g>
<!-- 5 -->
<g id="node2" class="node">
<title>5</title>
<ellipse fill="none" stroke="black" cx="338" cy="-25" rx="18" ry="18"/>
<text text-anchor="middle" x="338" y="-21.3" font-family="Helvetica,Arial,sans-serif" font-size="14.00">5</text>
</g>
<!-- 3&#45;&gt;5 -->
<g id="edge1" class="edge">
<title>3&#45;&gt;5</title>
<path fill="none" stroke="black" d="M196.21,-18.76C223.52,-19.97 277.01,-22.34 309.62,-23.79"/>
<polygon fill="black" stroke="black" points="309.67,-27.29 319.81,-24.24 309.98,-20.3 309.67,-27.29"/>
<text text-anchor="middle" x="258" y="-25.8" font-family="Helvetica,Arial,sans-serif" font-size="14.00">2</text>
</g>
<!-- 4 -->
<g id="node3" class="node">
<title>4</title>
<ellipse fill="none" stroke="black" cx="258" cy="-66" rx="18" ry="18"/>
<text text-anchor="middle" x="258" y="-62.3" font-family="Helvetica,Arial,sans-serif" font-size="14.00">4</text>
</g>
<!-- 3&#45;&gt;4 -->
<g id="edge2" class="edge">
<title>3&#45;&gt;4</title>
<path fill="none" stroke="black" d="M194.24,-26.59C202.52,-31.33 212.89,-37.37 222,-43 225.93,-45.43 230.07,-48.08 234.07,-50.68"/>
<polygon fill="black" stroke="black" points="232.19,-53.63 242.47,-56.2 236.04,-47.78 232.19,-53.63"/>
<text text-anchor="middle" x="218" y="-46.8" font-family="Helvetica,Arial,sans-serif" font-size="14.00">0</text>
</g>
<!-- 4&#45;&gt;5 -->
<g id="edge3" class="edge">
<title>4&#45;&gt;5</title>
<path fill="none" stroke="black" d="M274.41,-57.9C285.31,-52.17 300.14,-44.38 312.63,-37.81"/>
<polygon fill="black" stroke="black" points="314.4,-40.83 321.62,-33.08 311.14,-34.64 314.4,-40.83"/>
<text text-anchor="middle" x="298" y="-49.8" font-family="Helvetica,Arial,sans-serif" font-size="14.00">1</text>
</g>
<!-- 2 -->
<g id="node4" class="node">
<title>2</title>
<ellipse fill="none" stroke="black" cx="98" cy="-61" rx="18" ry="18"/>
<text text-anchor="middle" x="98" y="-57.3" font-family="Helvetica,Arial,sans-serif" font-size="14.00">2</text>
</g>
<!-- 2&#45;&gt;3 -->
<g id="edge5" class="edge">
<title>2&#45;&gt;3</title>
<path fill="none" stroke="black" d="M114.04,-52.71C125.05,-46.64 140.21,-38.28 152.9,-31.29"/>
<polygon fill="black" stroke="black" points="154.94,-34.16 162.01,-26.27 151.56,-28.03 154.94,-34.16"/>
<text text-anchor="middle" x="138" y="-43.8" font-family="Helvetica,Arial,sans-serif" font-size="14.00">2</text>
</g>
<!-- 2&#45;&gt;4 -->
<g id="edge4" class="edge">
<title>2&#45;&gt;4</title>
<path fill="none" stroke="black" d="M116.21,-61.54C143.52,-62.41 197.01,-64.1 229.62,-65.13"/>
<polygon fill="black" stroke="black" points="229.71,-68.64 239.81,-65.46 229.93,-61.64 229.71,-68.64"/>
<text text-anchor="middle" x="178" y="-66.8" font-family="Helvetica,Arial,sans-serif" font-size="14.00">1</text>
</g>
<!-- 1 -->
<g id="node5" class="node">
<title>1</title>
<ellipse fill="none" stroke="black" cx="98" cy="-115" rx="18" ry="18"/>
<text text-anchor="middle" x="98" y="-111.3" font-family="Helvetica,Arial,sans-serif" font-size="14.00">1</text>
</g>
<!-- 1&#45;&gt;3 -->
<g id="edge7" class="edge">
<title>1&#45;&gt;3</title>
<path fill="none" stroke="black" d="M110.18,-101.1C123.11,-85.02 144.55,-58.35 159.66,-39.57"/>
<polygon fill="black" stroke="black" points="162.56,-41.55 166.1,-31.56 157.1,-37.16 162.56,-41.55"/>
<text text-anchor="middle" x="138" y="-72.8" font-family="Helvetica,Arial,sans-serif" font-size="14.00">0</text>
</g>
<!-- 1&#45;&gt;4 -->
<g id="edge6" class="edge">
<title>1&#45;&gt;4</title>
<path fill="none" stroke="black" d="M115.38,-110.29C139.01,-103.44 184,-90.22 222,-78 224.96,-77.05 228.06,-76.03 231.13,-74.99"/>
<polygon fill="black" stroke="black" points="232.32,-78.28 240.66,-71.75 230.07,-71.66 232.32,-78.28"/>
<text text-anchor="middle" x="178" y="-99.8" font-family="Helvetica,Arial,sans-serif" font-size="14.00">0</text>
</g>
<!-- 0 -->
<g id="node6" class="node">
<title>0</title>
<ellipse fill="none" stroke="black" cx="18" cy="-88" rx="18" ry="18"/>
<text text-anchor="middle" x="18" y="-84.3" font-family="Helvetica,Arial,sans-serif" font-size="14.00">0</text>
</g>
<!-- 0&#45;&gt;2 -->
<g id="edge8" class="edge">
<title>0&#45;&gt;2</title>
<path fill="none" stroke="black" d="M34.92,-81.29C40.86,-78.88 47.7,-76.21 54,-74 59.43,-72.1 65.3,-70.21 70.9,-68.49"/>
<polygon fill="black" stroke="black" points="71.98,-71.82 80.56,-65.61 69.97,-65.12 71.98,-71.82"/>
<text text-anchor="middle" x="58" y="-77.8" font-family="Helvetica,Arial,sans-serif" font-size="14.00">3</text>
</g>
<!-- 0&#45;&gt;1 -->
<g id="edge9" class="edge">
<title>0&#45;&gt;1</title>
<path fill="none" stroke="black" d="M35.16,-93.59C45.62,-97.21 59.46,-102.01 71.4,-106.14"/>
<polygon fill="black" stroke="black" points="70.26,-109.45 80.86,-109.41 72.55,-102.83 70.26,-109.45"/>
<text text-anchor="middle" x="58" y="-105.8" font-family="Helvetica,Arial,sans-serif" font-size="14.00">0</text>
</g>
</g>
</svg>
