<?xml version="1.0" encoding="UTF-8" standalone="no"?>
<!DOCTYPE svg PUBLIC "-//W3C//DTD SVG 1.1//EN"
 "http://www.w3.org/Graphics/SVG/1.1/DTD/svg11.dtd">
<!-- Generated by graphviz version 2.42.3 (20191010.1750)
 -->
<!-- Title: finite_state_machine Pages: 1 -->
<svg width="364pt" height="105pt"
 viewBox="0.00 0.00 364.00 105.00" xmlns="http://www.w3.org/2000/svg" xmlns:xlink="http://www.w3.org/1999/xlink">
<g id="graph0" class="graph" transform="scale(1 1) rotate(0) translate(4 101)">
<title>finite_state_machine</title>
<polygon fill="white" stroke="transparent" points="-4,4 -4,-101 360,-101 360,4 -4,4"/>
<!-- 3 -->
<g id="node1" class="node">
<title>3</title>
<ellipse fill="none" stroke="black" cx="18" cy="-79" rx="18" ry="18"/>
<text text-anchor="middle" x="18" y="-75.3" font-family="Helvetica,Arial,sans-serif" font-size="14.00">3</text>
</g>
<!-- 1 -->
<g id="node2" class="node">
<title>1</title>
<ellipse fill="none" stroke="black" cx="98" cy="-40" rx="18" ry="18"/>
<text text-anchor="middle" x="98" y="-36.3" font-family="Helvetica,Arial,sans-serif" font-size="14.00">1</text>
</g>
<!-- 3&#45;&gt;1 -->
<g id="edge1" class="edge">
<title>3&#45;&gt;1</title>
<path fill="none" stroke="black" d="M33.29,-69.18C39.5,-65.13 46.96,-60.57 54,-57 59.51,-54.21 65.58,-51.56 71.39,-49.23"/>
<polygon fill="black" stroke="black" points="72.69,-52.48 80.76,-45.61 70.17,-45.94 72.69,-52.48"/>
<text text-anchor="middle" x="58" y="-60.8" font-family="Helvetica,Arial,sans-serif" font-size="14.00">0</text>
</g>
<!-- 2 -->
<g id="node3" class="node">
<title>2</title>
<ellipse fill="none" stroke="black" cx="178" cy="-40" rx="18" ry="18"/>
<text text-anchor="middle" x="178" y="-36.3" font-family="Helvetica,Arial,sans-serif" font-size="14.00">2</text>
</g>
<!-- 1&#45;&gt;2 -->
<g id="edge2" class="edge">
<title>1&#45;&gt;2</title>
<path fill="none" stroke="black" d="M116.31,-40C126.11,-40 138.58,-40 149.67,-40"/>
<polygon fill="black" stroke="black" points="149.74,-43.5 159.74,-40 149.74,-36.5 149.74,-43.5"/>
<text text-anchor="middle" x="138" y="-43.8" font-family="Helvetica,Arial,sans-serif" font-size="14.00">7</text>
</g>
<!-- 4 -->
<g id="node4" class="node">
<title>4</title>
<ellipse fill="none" stroke="black" cx="258" cy="-63" rx="18" ry="18"/>
<text text-anchor="middle" x="258" y="-59.3" font-family="Helvetica,Arial,sans-serif" font-size="14.00">4</text>
</g>
<!-- 2&#45;&gt;4 -->
<g id="edge3" class="edge">
<title>2&#45;&gt;4</title>
<path fill="none" stroke="black" d="M195.54,-44.88C205.78,-47.9 219.15,-51.84 230.8,-55.28"/>
<polygon fill="black" stroke="black" points="229.9,-58.66 240.48,-58.13 231.88,-51.94 229.9,-58.66"/>
<text text-anchor="middle" x="218" y="-55.8" font-family="Helvetica,Arial,sans-serif" font-size="14.00">7</text>
</g>
<!-- 4&#45;&gt;3 -->
<g id="edge4" class="edge">
<title>4&#45;&gt;3</title>
<path fill="none" stroke="black" d="M240.38,-67.46C234.6,-68.83 228.06,-70.2 222,-71 159.52,-79.3 85.35,-79.91 46.26,-79.52"/>
<polygon fill="black" stroke="black" points="46.25,-76.02 36.2,-79.39 46.16,-83.02 46.25,-76.02"/>
<text text-anchor="middle" x="138" y="-81.8" font-family="Helvetica,Arial,sans-serif" font-size="14.00">0</text>
</g>
<!-- 5 -->
<g id="node5" class="node">
<title>5</title>
<ellipse fill="none" stroke="black" cx="338" cy="-63" rx="18" ry="18"/>
<text text-anchor="middle" x="338" y="-59.3" font-family="Helvetica,Arial,sans-serif" font-size="14.00">5</text>
</g>
<!-- 4&#45;&gt;5 -->
<g id="edge5" class="edge">
<title>4&#45;&gt;5</title>
<path fill="none" stroke="black" d="M276.31,-63C286.11,-63 298.58,-63 309.67,-63"/>
<polygon fill="black" stroke="black" points="309.74,-66.5 319.74,-63 309.74,-59.5 309.74,-66.5"/>
<text text-anchor="middle" x="298" y="-66.8" font-family="Helvetica,Arial,sans-serif" font-size="14.00">7</text>
</g>
<!-- 0 -->
<g id="node6" class="node">
<title>0</title>
<ellipse fill="none" stroke="black" cx="18" cy="-18" rx="18" ry="18"/>
<text text-anchor="middle" x="18" y="-14.3" font-family="Helvetica,Arial,sans-serif" font-size="14.00">0</text>
</g>
<!-- 0&#45;&gt;1 -->
<g id="edge6" class="edge">
<title>0&#45;&gt;1</title>
<path fill="none" stroke="black" d="M36.05,-16.41C44.07,-16.16 53.68,-16.59 62,-19 66.21,-20.22 70.43,-22.08 74.41,-24.19"/>
<polygon fill="black" stroke="black" points="72.76,-27.28 83.14,-29.42 76.36,-21.28 72.76,-27.28"/>
<text text-anchor="middle" x="58" y="-22.8" font-family="Helvetica,Arial,sans-serif" font-size="14.00">7</text>
</g>
</g>
</svg>
