<?xml version="1.0" encoding="UTF-8" standalone="no"?>
<!DOCTYPE svg PUBLIC "-//W3C//DTD SVG 1.1//EN"
 "http://www.w3.org/Graphics/SVG/1.1/DTD/svg11.dtd">
<!-- Generated by graphviz version 2.42.3 (20191010.1750)
 -->
<!-- Title: finite_state_machine Pages: 1 -->
<svg width="460pt" height="136pt"
 viewBox="0.00 0.00 460.00 136.00" xmlns="http://www.w3.org/2000/svg" xmlns:xlink="http://www.w3.org/1999/xlink">
<g id="graph0" class="graph" transform="scale(1 1) rotate(0) translate(4 132)">
<title>finite_state_machine</title>
<polygon fill="white" stroke="transparent" points="-4,4 -4,-132 456,-132 456,4 -4,4"/>
<!-- 1 -->
<g id="node1" class="node">
<title>1</title>
<ellipse fill="none" stroke="black" cx="106" cy="-64" rx="18" ry="18"/>
<text text-anchor="middle" x="106" y="-60.3" font-family="Helvetica,Arial,sans-serif" font-size="14.00">1</text>
</g>
<!-- 2 -->
<g id="node2" class="node">
<title>2</title>
<ellipse fill="none" stroke="black" cx="194" cy="-110" rx="18" ry="18"/>
<text text-anchor="middle" x="194" y="-106.3" font-family="Helvetica,Arial,sans-serif" font-size="14.00">2</text>
</g>
<!-- 1&#45;&gt;2 -->
<g id="edge1" class="edge">
<title>1&#45;&gt;2</title>
<path fill="none" stroke="black" d="M122.38,-72.22C135.22,-79.09 153.76,-89.01 168.62,-96.96"/>
<polygon fill="black" stroke="black" points="167.29,-100.22 177.76,-101.85 170.59,-94.04 167.29,-100.22"/>
<text text-anchor="middle" x="150" y="-94.8" font-family="Helvetica,Arial,sans-serif" font-size="14.00">10</text>
</g>
<!-- 3 -->
<g id="node4" class="node">
<title>3</title>
<ellipse fill="none" stroke="black" cx="274" cy="-18" rx="18" ry="18"/>
<text text-anchor="middle" x="274" y="-14.3" font-family="Helvetica,Arial,sans-serif" font-size="14.00">3</text>
</g>
<!-- 2&#45;&gt;3 -->
<g id="edge6" class="edge">
<title>2&#45;&gt;3</title>
<path fill="none" stroke="black" d="M210.21,-101.72C219.08,-96.36 230.04,-88.76 238,-80 247.78,-69.25 255.95,-55.29 261.94,-43.35"/>
<polygon fill="black" stroke="black" points="265.11,-44.83 266.26,-34.3 258.79,-41.81 265.11,-44.83"/>
<text text-anchor="middle" x="234" y="-89.8" font-family="Helvetica,Arial,sans-serif" font-size="14.00">3</text>
</g>
<!-- 5 -->
<g id="node6" class="node">
<title>5</title>
<ellipse fill="none" stroke="black" cx="434" cy="-98" rx="18" ry="18"/>
<text text-anchor="middle" x="434" y="-94.3" font-family="Helvetica,Arial,sans-serif" font-size="14.00">5</text>
</g>
<!-- 2&#45;&gt;5 -->
<g id="edge5" class="edge">
<title>2&#45;&gt;5</title>
<path fill="none" stroke="black" d="M212.12,-109.48C247.08,-108.36 329.18,-105.47 398,-101 400.56,-100.83 403.22,-100.64 405.88,-100.44"/>
<polygon fill="black" stroke="black" points="406.24,-103.92 415.92,-99.61 405.67,-96.94 406.24,-103.92"/>
<text text-anchor="middle" x="314" y="-108.8" font-family="Helvetica,Arial,sans-serif" font-size="14.00">7</text>
</g>
<!-- 0 -->
<g id="node3" class="node">
<title>0</title>
<ellipse fill="none" stroke="black" cx="18" cy="-37" rx="18" ry="18"/>
<text text-anchor="middle" x="18" y="-33.3" font-family="Helvetica,Arial,sans-serif" font-size="14.00">0</text>
</g>
<!-- 0&#45;&gt;1 -->
<g id="edge2" class="edge">
<title>0&#45;&gt;1</title>
<path fill="none" stroke="black" d="M35.58,-42.21C47.84,-46.05 64.76,-51.37 78.84,-55.79"/>
<polygon fill="black" stroke="black" points="77.88,-59.15 88.47,-58.81 79.98,-52.48 77.88,-59.15"/>
<text text-anchor="middle" x="62" y="-55.8" font-family="Helvetica,Arial,sans-serif" font-size="14.00">10</text>
</g>
<!-- 0&#45;&gt;3 -->
<g id="edge3" class="edge">
<title>0&#45;&gt;3</title>
<path fill="none" stroke="black" d="M36.06,-35.72C79.26,-32.49 193.25,-23.97 245.79,-20.04"/>
<polygon fill="black" stroke="black" points="246.3,-23.51 256.01,-19.27 245.78,-16.53 246.3,-23.51"/>
<text text-anchor="middle" x="150" y="-30.8" font-family="Helvetica,Arial,sans-serif" font-size="14.00">4</text>
</g>
<!-- 4 -->
<g id="node5" class="node">
<title>4</title>
<ellipse fill="none" stroke="black" cx="354" cy="-64" rx="18" ry="18"/>
<text text-anchor="middle" x="354" y="-60.3" font-family="Helvetica,Arial,sans-serif" font-size="14.00">4</text>
</g>
<!-- 3&#45;&gt;4 -->
<g id="edge4" class="edge">
<title>3&#45;&gt;4</title>
<path fill="none" stroke="black" d="M291.49,-23.14C299.74,-26.05 309.71,-30.1 318,-35 323.01,-37.96 328.04,-41.63 332.66,-45.34"/>
<polygon fill="black" stroke="black" points="330.55,-48.14 340.44,-51.94 335.08,-42.8 330.55,-48.14"/>
<text text-anchor="middle" x="314" y="-38.8" font-family="Helvetica,Arial,sans-serif" font-size="14.00">7</text>
</g>
<!-- 4&#45;&gt;1 -->
<g id="edge8" class="edge">
<title>4&#45;&gt;1</title>
<path fill="none" stroke="black" d="M335.86,-63.41C313.39,-62.68 272.75,-61.45 238,-61 202.21,-60.53 160.94,-61.77 134.43,-62.8"/>
<polygon fill="black" stroke="black" points="134.22,-59.3 124.37,-63.2 134.51,-66.3 134.22,-59.3"/>
<text text-anchor="middle" x="234" y="-64.8" font-family="Helvetica,Arial,sans-serif" font-size="14.00">0</text>
</g>
<!-- 4&#45;&gt;5 -->
<g id="edge7" class="edge">
<title>4&#45;&gt;5</title>
<path fill="none" stroke="black" d="M370.78,-70.88C381.46,-75.53 395.79,-81.78 408.01,-87.11"/>
<polygon fill="black" stroke="black" points="406.67,-90.34 417.24,-91.13 409.47,-83.93 406.67,-90.34"/>
<text text-anchor="middle" x="394" y="-85.8" font-family="Helvetica,Arial,sans-serif" font-size="14.00">7</text>
</g>
</g>
</svg>
