<?xml version="1.0" encoding="UTF-8" standalone="no"?>
<!DOCTYPE svg PUBLIC "-//W3C//DTD SVG 1.1//EN"
 "http://www.w3.org/Graphics/SVG/1.1/DTD/svg11.dtd">
<!-- Generated by graphviz version 2.42.3 (20191010.1750)
 -->
<!-- Title: finite_state_machine Pages: 1 -->
<svg width="388pt" height="353pt"
 viewBox="0.00 0.00 388.00 353.00" xmlns="http://www.w3.org/2000/svg" xmlns:xlink="http://www.w3.org/1999/xlink">
<g id="graph0" class="graph" transform="scale(1 1) rotate(0) translate(4 349)">
<title>finite_state_machine</title>
<polygon fill="white" stroke="transparent" points="-4,4 -4,-349 384,-349 384,4 -4,4"/>
<!-- 1 -->
<g id="node1" class="node">
<title>1</title>
<ellipse fill="none" stroke="black" cx="18" cy="-94" rx="18" ry="18"/>
<text text-anchor="middle" x="18" y="-90.3" font-family="Helvetica,Arial,sans-serif" font-size="14.00">1</text>
</g>
<!-- 3 -->
<g id="node2" class="node">
<title>3</title>
<ellipse fill="none" stroke="black" cx="106" cy="-173" rx="18" ry="18"/>
<text text-anchor="middle" x="106" y="-169.3" font-family="Helvetica,Arial,sans-serif" font-size="14.00">3</text>
</g>
<!-- 1&#45;&gt;3 -->
<g id="edge1" class="edge">
<title>1&#45;&gt;3</title>
<path fill="none" stroke="black" d="M33.39,-104.24C43.92,-111.97 58.33,-123.08 70,-134 75.85,-139.47 81.81,-145.79 87.12,-151.72"/>
<polygon fill="black" stroke="black" points="84.66,-154.24 93.88,-159.47 89.94,-149.63 84.66,-154.24"/>
<text text-anchor="middle" x="62" y="-137.8" font-family="Helvetica,Arial,sans-serif" font-size="14.00">0</text>
</g>
<!-- 0 -->
<g id="node3" class="node">
<title>0</title>
<ellipse fill="none" stroke="black" cx="362" cy="-67" rx="18" ry="18"/>
<text text-anchor="middle" x="362" y="-63.3" font-family="Helvetica,Arial,sans-serif" font-size="14.00">0</text>
</g>
<!-- 1&#45;&gt;0 -->
<g id="edge2" class="edge">
<title>1&#45;&gt;0</title>
<path fill="none" stroke="black" d="M32.27,-82.48C48.35,-69.74 76.79,-51 105,-51 105,-51 105,-51 275,-51 295.25,-51 317.73,-55.34 334.63,-59.5"/>
<polygon fill="black" stroke="black" points="333.8,-62.9 344.36,-62.03 335.56,-56.12 333.8,-62.9"/>
<text text-anchor="middle" x="186" y="-54.8" font-family="Helvetica,Arial,sans-serif" font-size="14.00">12</text>
</g>
<!-- 3&#45;&gt;1 -->
<g id="edge8" class="edge">
<title>3&#45;&gt;1</title>
<path fill="none" stroke="black" d="M88.47,-167.92C77.76,-164.02 63.99,-157.79 54,-149 44.63,-140.75 36.84,-129.41 31.01,-119.16"/>
<polygon fill="black" stroke="black" points="34.01,-117.36 26.21,-110.19 27.84,-120.66 34.01,-117.36"/>
<text text-anchor="middle" x="62" y="-162.8" font-family="Helvetica,Arial,sans-serif" font-size="14.00">12</text>
</g>
<!-- 2 -->
<g id="node4" class="node">
<title>2</title>
<ellipse fill="none" stroke="black" cx="274" cy="-122" rx="18" ry="18"/>
<text text-anchor="middle" x="274" y="-118.3" font-family="Helvetica,Arial,sans-serif" font-size="14.00">2</text>
</g>
<!-- 3&#45;&gt;2 -->
<g id="edge7" class="edge">
<title>3&#45;&gt;2</title>
<path fill="none" stroke="black" d="M123.31,-167.51C145.53,-160.08 186.62,-146.54 222,-136 229.95,-133.63 238.65,-131.19 246.57,-129.02"/>
<polygon fill="black" stroke="black" points="247.67,-132.35 256.41,-126.36 245.84,-125.59 247.67,-132.35"/>
<text text-anchor="middle" x="186" y="-155.8" font-family="Helvetica,Arial,sans-serif" font-size="14.00">9</text>
</g>
<!-- 5 -->
<g id="node5" class="node">
<title>5</title>
<ellipse fill="none" stroke="black" cx="274" cy="-284" rx="18" ry="18"/>
<text text-anchor="middle" x="274" y="-280.3" font-family="Helvetica,Arial,sans-serif" font-size="14.00">5</text>
</g>
<!-- 3&#45;&gt;5 -->
<g id="edge9" class="edge">
<title>3&#45;&gt;5</title>
<path fill="none" stroke="black" d="M117.1,-187.21C135.05,-211.16 175.08,-258.9 222,-279 229.31,-282.13 237.73,-283.69 245.6,-284.38"/>
<polygon fill="black" stroke="black" points="245.67,-287.89 255.82,-284.87 246,-280.9 245.67,-287.89"/>
<text text-anchor="middle" x="186" y="-272.8" font-family="Helvetica,Arial,sans-serif" font-size="14.00">1</text>
</g>
<!-- 4 -->
<g id="node6" class="node">
<title>4</title>
<ellipse fill="none" stroke="black" cx="186" cy="-202" rx="18" ry="18"/>
<text text-anchor="middle" x="186" y="-198.3" font-family="Helvetica,Arial,sans-serif" font-size="14.00">4</text>
</g>
<!-- 3&#45;&gt;4 -->
<g id="edge10" class="edge">
<title>3&#45;&gt;4</title>
<path fill="none" stroke="black" d="M122.49,-180.63C128.5,-183.44 135.5,-186.54 142,-189 147.38,-191.03 153.23,-192.97 158.83,-194.71"/>
<polygon fill="black" stroke="black" points="157.91,-198.08 168.49,-197.57 159.9,-191.37 157.91,-198.08"/>
<text text-anchor="middle" x="146" y="-194.8" font-family="Helvetica,Arial,sans-serif" font-size="14.00">7</text>
</g>
<!-- 0&#45;&gt;1 -->
<g id="edge3" class="edge">
<title>0&#45;&gt;1</title>
<path fill="none" stroke="black" d="M351.3,-52.13C337.11,-32.39 308.69,0 275,0 105,0 105,0 105,0 68,0 42.63,-40.13 29.5,-67.95"/>
<polygon fill="black" stroke="black" points="26.25,-66.64 25.36,-77.19 32.64,-69.5 26.25,-66.64"/>
<text text-anchor="middle" x="186" y="-3.8" font-family="Helvetica,Arial,sans-serif" font-size="14.00">4</text>
</g>
<!-- 0&#45;&gt;2 -->
<g id="edge4" class="edge">
<title>0&#45;&gt;2</title>
<path fill="none" stroke="black" d="M344.01,-70.83C333.63,-73.67 320.39,-78.25 310,-85 303.72,-89.08 297.77,-94.51 292.61,-99.94"/>
<polygon fill="black" stroke="black" points="289.7,-97.96 285.68,-107.76 294.94,-102.6 289.7,-97.96"/>
<text text-anchor="middle" x="318" y="-88.8" font-family="Helvetica,Arial,sans-serif" font-size="14.00">2</text>
</g>
<!-- 2&#45;&gt;1 -->
<g id="edge14" class="edge">
<title>2&#45;&gt;1</title>
<path fill="none" stroke="black" d="M256.01,-120.13C212.9,-115.37 98.91,-102.81 46.31,-97.01"/>
<polygon fill="black" stroke="black" points="46.38,-93.5 36.06,-95.88 45.62,-100.46 46.38,-93.5"/>
<text text-anchor="middle" x="146" y="-111.8" font-family="Helvetica,Arial,sans-serif" font-size="14.00">4</text>
</g>
<!-- 2&#45;&gt;0 -->
<g id="edge16" class="edge">
<title>2&#45;&gt;0</title>
<path fill="none" stroke="black" d="M291.35,-116.61C301.74,-112.79 315.2,-107.1 326,-100 331.59,-96.33 337.1,-91.72 342.05,-87.13"/>
<polygon fill="black" stroke="black" points="344.57,-89.56 349.27,-80.06 339.67,-84.55 344.57,-89.56"/>
<text text-anchor="middle" x="318" y="-111.8" font-family="Helvetica,Arial,sans-serif" font-size="14.00">11</text>
</g>
<!-- 2&#45;&gt;4 -->
<g id="edge15" class="edge">
<title>2&#45;&gt;4</title>
<path fill="none" stroke="black" d="M257.12,-129.11C246.42,-134.41 232.41,-142.38 222,-152 214.03,-159.36 206.83,-168.84 201.07,-177.56"/>
<polygon fill="black" stroke="black" points="197.97,-175.92 195.61,-186.25 203.89,-179.64 197.97,-175.92"/>
<text text-anchor="middle" x="230" y="-155.8" font-family="Helvetica,Arial,sans-serif" font-size="14.00">3</text>
</g>
<!-- 5&#45;&gt;3 -->
<g id="edge6" class="edge">
<title>5&#45;&gt;3</title>
<path fill="none" stroke="black" d="M260.87,-296.89C254.61,-302.75 246.51,-309.21 238,-313 199.02,-330.36 172.99,-342.33 142,-313 125.98,-297.83 115.44,-237.28 110.42,-200.96"/>
<polygon fill="black" stroke="black" points="113.88,-200.43 109.09,-190.98 106.94,-201.35 113.88,-200.43"/>
<text text-anchor="middle" x="186" y="-333.8" font-family="Helvetica,Arial,sans-serif" font-size="14.00">19</text>
</g>
<!-- 5&#45;&gt;4 -->
<g id="edge5" class="edge">
<title>5&#45;&gt;4</title>
<path fill="none" stroke="black" d="M264.79,-268.08C258.52,-257.01 249.09,-242.44 238,-232 230.42,-224.87 220.85,-218.68 212.05,-213.81"/>
<polygon fill="black" stroke="black" points="213.42,-210.58 202.94,-209.05 210.19,-216.78 213.42,-210.58"/>
<text text-anchor="middle" x="230" y="-235.8" font-family="Helvetica,Arial,sans-serif" font-size="14.00">4</text>
</g>
<!-- 4&#45;&gt;3 -->
<g id="edge12" class="edge">
<title>4&#45;&gt;3</title>
<path fill="none" stroke="black" d="M174.27,-188.2C168.03,-181.32 159.52,-173.69 150,-170 144.98,-168.05 139.39,-167.44 133.95,-167.56"/>
<polygon fill="black" stroke="black" points="133.45,-164.09 123.84,-168.54 134.13,-171.05 133.45,-164.09"/>
<text text-anchor="middle" x="146" y="-173.8" font-family="Helvetica,Arial,sans-serif" font-size="14.00">0</text>
</g>
<!-- 4&#45;&gt;2 -->
<g id="edge13" class="edge">
<title>4&#45;&gt;2</title>
<path fill="none" stroke="black" d="M202.84,-194.51C213.52,-188.98 227.52,-180.73 238,-171 245.85,-163.71 253.02,-154.42 258.8,-145.88"/>
<polygon fill="black" stroke="black" points="261.8,-147.68 264.29,-137.38 255.92,-143.88 261.8,-147.68"/>
<text text-anchor="middle" x="230" y="-186.8" font-family="Helvetica,Arial,sans-serif" font-size="14.00">11</text>
</g>
<!-- 4&#45;&gt;5 -->
<g id="edge11" class="edge">
<title>4&#45;&gt;5</title>
<path fill="none" stroke="black" d="M196.78,-216.64C203.32,-225.88 212.47,-237.78 222,-247 230.46,-255.18 240.82,-263.02 249.99,-269.37"/>
<polygon fill="black" stroke="black" points="248.05,-272.28 258.31,-274.95 251.95,-266.47 248.05,-272.28"/>
<text text-anchor="middle" x="230" y="-263.8" font-family="Helvetica,Arial,sans-serif" font-size="14.00">0</text>
</g>
</g>
</svg>
