<?xml version="1.0" encoding="UTF-8" standalone="no"?>
<!DOCTYPE svg PUBLIC "-//W3C//DTD SVG 1.1//EN"
 "http://www.w3.org/Graphics/SVG/1.1/DTD/svg11.dtd">
<!-- Generated by graphviz version 2.42.3 (20191010.1750)
 -->
<!-- Title: finite_state_machine Pages: 1 -->
<svg width="831pt" height="512pt"
 viewBox="0.00 0.00 831.00 512.00" xmlns="http://www.w3.org/2000/svg" xmlns:xlink="http://www.w3.org/1999/xlink">
<g id="graph0" class="graph" transform="scale(1 1) rotate(0) translate(4 508)">
<title>finite_state_machine</title>
<polygon fill="white" stroke="transparent" points="-4,4 -4,-508 827,-508 827,4 -4,4"/>
<!-- 2 -->
<g id="node1" class="node">
<title>2</title>
<ellipse fill="none" stroke="black" cx="18" cy="-347" rx="18" ry="18"/>
<text text-anchor="middle" x="18" y="-343.3" font-family="Helvetica,Arial,sans-serif" font-size="14.00">2</text>
</g>
<!-- 5 -->
<g id="node2" class="node">
<title>5</title>
<ellipse fill="none" stroke="black" cx="118" cy="-305" rx="18" ry="18"/>
<text text-anchor="middle" x="118" y="-301.3" font-family="Helvetica,Arial,sans-serif" font-size="14.00">5</text>
</g>
<!-- 2&#45;&gt;5 -->
<g id="edge1" class="edge">
<title>2&#45;&gt;5</title>
<path fill="none" stroke="black" d="M34.75,-340.25C50.18,-333.64 73.94,-323.46 91.96,-315.73"/>
<polygon fill="black" stroke="black" points="93.48,-318.89 101.29,-311.73 90.72,-312.45 93.48,-318.89"/>
<text text-anchor="middle" x="68" y="-333.8" font-family="Helvetica,Arial,sans-serif" font-size="14.00">&#45;766</text>
</g>
<!-- 4 -->
<g id="node3" class="node">
<title>4</title>
<ellipse fill="none" stroke="black" cx="418" cy="-315" rx="18" ry="18"/>
<text text-anchor="middle" x="418" y="-311.3" font-family="Helvetica,Arial,sans-serif" font-size="14.00">4</text>
</g>
<!-- 2&#45;&gt;4 -->
<g id="edge2" class="edge">
<title>2&#45;&gt;4</title>
<path fill="none" stroke="black" d="M22.48,-364.7C31.11,-402.76 57.24,-489 117,-489 117,-489 117,-489 319,-489 352.42,-489 391.08,-390.32 408.14,-341.59"/>
<polygon fill="black" stroke="black" points="411.49,-342.6 411.44,-332 404.87,-340.32 411.49,-342.6"/>
<text text-anchor="middle" x="218" y="-492.8" font-family="Helvetica,Arial,sans-serif" font-size="14.00">766</text>
</g>
<!-- 5&#45;&gt;2 -->
<g id="edge5" class="edge">
<title>5&#45;&gt;2</title>
<path fill="none" stroke="black" d="M100.6,-300.05C87.34,-297 68.56,-294.88 54,-302 44.99,-306.41 37.63,-314.38 32.02,-322.4"/>
<polygon fill="black" stroke="black" points="29,-320.63 26.63,-330.96 34.92,-324.36 29,-320.63"/>
<text text-anchor="middle" x="68" y="-305.8" font-family="Helvetica,Arial,sans-serif" font-size="14.00">766</text>
</g>
<!-- 5&#45;&gt;4 -->
<g id="edge6" class="edge">
<title>5&#45;&gt;4</title>
<path fill="none" stroke="black" d="M136.31,-305.58C185.89,-307.24 328.76,-312.04 389.33,-314.07"/>
<polygon fill="black" stroke="black" points="389.53,-317.58 399.64,-314.42 389.77,-310.58 389.53,-317.58"/>
<text text-anchor="middle" x="268" y="-313.8" font-family="Helvetica,Arial,sans-serif" font-size="14.00">0</text>
</g>
<!-- 0 -->
<g id="node4" class="node">
<title>0</title>
<ellipse fill="none" stroke="black" cx="725" cy="-335" rx="18" ry="18"/>
<text text-anchor="middle" x="725" y="-331.3" font-family="Helvetica,Arial,sans-serif" font-size="14.00">0</text>
</g>
<!-- 5&#45;&gt;0 -->
<g id="edge3" class="edge">
<title>5&#45;&gt;0</title>
<path fill="none" stroke="black" d="M119.79,-323.22C121.81,-347.99 128.96,-392.25 154,-419 174.48,-440.88 187.04,-443 217,-443 217,-443 217,-443 619,-443 654.19,-443 664.47,-431.23 689,-406 701.14,-393.51 709.84,-375.98 715.53,-361.47"/>
<polygon fill="black" stroke="black" points="718.84,-362.59 718.99,-352 712.27,-360.19 718.84,-362.59"/>
<text text-anchor="middle" x="418" y="-446.8" font-family="Helvetica,Arial,sans-serif" font-size="14.00">&#45;343</text>
</g>
<!-- 1 -->
<g id="node5" class="node">
<title>1</title>
<ellipse fill="none" stroke="black" cx="218" cy="-178" rx="18" ry="18"/>
<text text-anchor="middle" x="218" y="-174.3" font-family="Helvetica,Arial,sans-serif" font-size="14.00">1</text>
</g>
<!-- 5&#45;&gt;1 -->
<g id="edge4" class="edge">
<title>5&#45;&gt;1</title>
<path fill="none" stroke="black" d="M119.62,-287.04C121.45,-262.72 128.37,-219.52 154,-195 163.5,-185.92 177.33,-181.57 189.61,-179.54"/>
<polygon fill="black" stroke="black" points="190.36,-182.98 199.86,-178.29 189.51,-176.03 190.36,-182.98"/>
<text text-anchor="middle" x="168" y="-198.8" font-family="Helvetica,Arial,sans-serif" font-size="14.00">&#45;423</text>
</g>
<!-- 4&#45;&gt;2 -->
<g id="edge17" class="edge">
<title>4&#45;&gt;2</title>
<path fill="none" stroke="black" d="M403.69,-326.14C385.69,-340.04 352.02,-362 319,-362 117,-362 117,-362 117,-362 92.6,-362 65.18,-357.4 45.56,-353.3"/>
<polygon fill="black" stroke="black" points="46.05,-349.82 35.53,-351.1 44.55,-356.66 46.05,-349.82"/>
<text text-anchor="middle" x="218" y="-365.8" font-family="Helvetica,Arial,sans-serif" font-size="14.00">&#45;766</text>
</g>
<!-- 4&#45;&gt;5 -->
<g id="edge18" class="edge">
<title>4&#45;&gt;5</title>
<path fill="none" stroke="black" d="M400.28,-311.59C394.49,-310.42 387.97,-309.13 382,-308 325.56,-297.28 311.36,-286.82 254,-290 216.38,-292.08 173.13,-297.41 145.93,-301.12"/>
<polygon fill="black" stroke="black" points="145.42,-297.66 136,-302.5 146.39,-304.59 145.42,-297.66"/>
<text text-anchor="middle" x="268" y="-293.8" font-family="Helvetica,Arial,sans-serif" font-size="14.00">0</text>
</g>
<!-- 9 -->
<g id="node10" class="node">
<title>9</title>
<ellipse fill="none" stroke="black" cx="318" cy="-183" rx="18" ry="18"/>
<text text-anchor="middle" x="318" y="-179.3" font-family="Helvetica,Arial,sans-serif" font-size="14.00">9</text>
</g>
<!-- 4&#45;&gt;9 -->
<g id="edge19" class="edge">
<title>4&#45;&gt;9</title>
<path fill="none" stroke="black" d="M407.98,-299.61C405.1,-294.18 402.11,-287.95 400,-282 386.94,-245.2 409.65,-223.57 382,-196 372.76,-186.79 358.84,-183.28 346.43,-182.18"/>
<polygon fill="black" stroke="black" points="346.21,-178.67 336.07,-181.76 345.92,-185.66 346.21,-178.67"/>
<text text-anchor="middle" x="368" y="-199.8" font-family="Helvetica,Arial,sans-serif" font-size="14.00">766</text>
</g>
<!-- 0&#45;&gt;5 -->
<g id="edge8" class="edge">
<title>0&#45;&gt;5</title>
<path fill="none" stroke="black" d="M711.6,-347.09C693.08,-363.82 656.34,-392 619,-392 467,-392 467,-392 467,-392 348.23,-392 309.51,-426.96 200,-381 173.41,-369.84 150.25,-345.79 135.58,-327.71"/>
<polygon fill="black" stroke="black" points="138,-325.12 129.08,-319.4 132.49,-329.44 138,-325.12"/>
<text text-anchor="middle" x="418" y="-398.8" font-family="Helvetica,Arial,sans-serif" font-size="14.00">343</text>
</g>
<!-- 8 -->
<g id="node6" class="node">
<title>8</title>
<ellipse fill="none" stroke="black" cx="805" cy="-335" rx="18" ry="18"/>
<text text-anchor="middle" x="805" y="-331.3" font-family="Helvetica,Arial,sans-serif" font-size="14.00">8</text>
</g>
<!-- 0&#45;&gt;8 -->
<g id="edge9" class="edge">
<title>0&#45;&gt;8</title>
<path fill="none" stroke="black" d="M743.31,-335C753.11,-335 765.58,-335 776.67,-335"/>
<polygon fill="black" stroke="black" points="776.74,-338.5 786.74,-335 776.74,-331.5 776.74,-338.5"/>
<text text-anchor="middle" x="765" y="-338.8" font-family="Helvetica,Arial,sans-serif" font-size="14.00">0</text>
</g>
<!-- 7 -->
<g id="node7" class="node">
<title>7</title>
<ellipse fill="none" stroke="black" cx="618" cy="-193" rx="18" ry="18"/>
<text text-anchor="middle" x="618" y="-189.3" font-family="Helvetica,Arial,sans-serif" font-size="14.00">7</text>
</g>
<!-- 0&#45;&gt;7 -->
<g id="edge10" class="edge">
<title>0&#45;&gt;7</title>
<path fill="none" stroke="black" d="M713.59,-320.92C695.3,-296.19 657.28,-244.77 635.42,-215.2"/>
<polygon fill="black" stroke="black" points="638.21,-213.09 629.45,-207.13 632.58,-217.26 638.21,-213.09"/>
<text text-anchor="middle" x="671.5" y="-289.8" font-family="Helvetica,Arial,sans-serif" font-size="14.00">1380</text>
</g>
<!-- 1&#45;&gt;5 -->
<g id="edge26" class="edge">
<title>1&#45;&gt;5</title>
<path fill="none" stroke="black" d="M204.71,-190.53C191.49,-204.31 170.19,-227.36 154,-249 146.53,-258.98 139.1,-270.58 133.01,-280.63"/>
<polygon fill="black" stroke="black" points="129.94,-278.95 127.84,-289.33 135.96,-282.52 129.94,-278.95"/>
<text text-anchor="middle" x="168" y="-252.8" font-family="Helvetica,Arial,sans-serif" font-size="14.00">423</text>
</g>
<!-- 1&#45;&gt;7 -->
<g id="edge27" class="edge">
<title>1&#45;&gt;7</title>
<path fill="none" stroke="black" d="M220.47,-159.95C225.25,-114.7 244.51,0 317,0 317,0 317,0 519,0 591.95,0 610.62,-110.98 615.38,-164.63"/>
<polygon fill="black" stroke="black" points="611.91,-165.15 616.18,-174.84 618.89,-164.6 611.91,-165.15"/>
<text text-anchor="middle" x="418" y="-3.8" font-family="Helvetica,Arial,sans-serif" font-size="14.00">&#45;811</text>
</g>
<!-- 6 -->
<g id="node8" class="node">
<title>6</title>
<ellipse fill="none" stroke="black" cx="518" cy="-118" rx="18" ry="18"/>
<text text-anchor="middle" x="518" y="-114.3" font-family="Helvetica,Arial,sans-serif" font-size="14.00">6</text>
</g>
<!-- 1&#45;&gt;6 -->
<g id="edge25" class="edge">
<title>1&#45;&gt;6</title>
<path fill="none" stroke="black" d="M233.01,-167.54C256.53,-150.72 306.08,-118.41 354,-107 409.35,-93.82 426,-94.94 482,-105 485.25,-105.58 488.6,-106.45 491.87,-107.47"/>
<polygon fill="black" stroke="black" points="490.71,-110.77 501.31,-110.82 493.05,-104.17 490.71,-110.77"/>
<text text-anchor="middle" x="368" y="-110.8" font-family="Helvetica,Arial,sans-serif" font-size="14.00">&#45;136</text>
</g>
<!-- 1&#45;&gt;9 -->
<g id="edge28" class="edge">
<title>1&#45;&gt;9</title>
<path fill="none" stroke="black" d="M233.78,-168.98C239.82,-165.8 247.02,-162.61 254,-161 266.13,-158.21 270.04,-157.55 282,-161 286.47,-162.29 290.91,-164.33 295.06,-166.66"/>
<polygon fill="black" stroke="black" points="293.25,-169.66 303.57,-172.06 297,-163.75 293.25,-169.66"/>
<text text-anchor="middle" x="268" y="-164.8" font-family="Helvetica,Arial,sans-serif" font-size="14.00">524</text>
</g>
<!-- 8&#45;&gt;0 -->
<g id="edge7" class="edge">
<title>8&#45;&gt;0</title>
<path fill="none" stroke="black" d="M789.28,-325.46C783.25,-322.08 776.04,-318.7 769,-317 762.13,-315.34 754.94,-316.9 748.45,-319.69"/>
<polygon fill="black" stroke="black" points="746.75,-316.63 739.56,-324.41 750.04,-322.81 746.75,-316.63"/>
<text text-anchor="middle" x="765" y="-320.8" font-family="Helvetica,Arial,sans-serif" font-size="14.00">0</text>
</g>
<!-- 7&#45;&gt;0 -->
<g id="edge15" class="edge">
<title>7&#45;&gt;0</title>
<path fill="none" stroke="black" d="M635.77,-196.27C651.62,-200.21 675,-208.35 689,-224 709.65,-247.09 718.12,-282.34 721.59,-306.89"/>
<polygon fill="black" stroke="black" points="718.14,-307.52 722.83,-317.02 725.09,-306.67 718.14,-307.52"/>
<text text-anchor="middle" x="671.5" y="-227.8" font-family="Helvetica,Arial,sans-serif" font-size="14.00">&#45;1380</text>
</g>
<!-- 7&#45;&gt;1 -->
<g id="edge14" class="edge">
<title>7&#45;&gt;1</title>
<path fill="none" stroke="black" d="M601.55,-201.02C560.93,-221.07 447.77,-270.34 354,-249 311.04,-239.22 266.9,-212.16 241.25,-194.42"/>
<polygon fill="black" stroke="black" points="243.17,-191.49 232.99,-188.57 239.13,-197.2 243.17,-191.49"/>
<text text-anchor="middle" x="418" y="-258.8" font-family="Helvetica,Arial,sans-serif" font-size="14.00">811</text>
</g>
<!-- 7&#45;&gt;6 -->
<g id="edge16" class="edge">
<title>7&#45;&gt;6</title>
<path fill="none" stroke="black" d="M602.32,-183.83C589.28,-175.48 569.88,-162.58 554,-150 549.04,-146.07 543.9,-141.62 539.14,-137.3"/>
<polygon fill="black" stroke="black" points="541.3,-134.53 531.58,-130.3 536.54,-139.67 541.3,-134.53"/>
<text text-anchor="middle" x="568" y="-173.8" font-family="Helvetica,Arial,sans-serif" font-size="14.00">569</text>
</g>
<!-- 6&#45;&gt;1 -->
<g id="edge11" class="edge">
<title>6&#45;&gt;1</title>
<path fill="none" stroke="black" d="M509.86,-101.77C504,-90.33 494.61,-75.58 482,-67 434.22,-34.47 411.43,-37.48 354,-44 308.69,-49.14 287.5,-36.06 254,-67 231.01,-88.23 223.03,-124.4 220.31,-149.66"/>
<polygon fill="black" stroke="black" points="216.81,-149.48 219.44,-159.74 223.78,-150.08 216.81,-149.48"/>
<text text-anchor="middle" x="368" y="-47.8" font-family="Helvetica,Arial,sans-serif" font-size="14.00">136</text>
</g>
<!-- 6&#45;&gt;7 -->
<g id="edge13" class="edge">
<title>6&#45;&gt;7</title>
<path fill="none" stroke="black" d="M536.03,-119.14C549.64,-120.81 568.61,-124.91 582,-135 592.86,-143.18 601.05,-155.81 606.77,-167.19"/>
<polygon fill="black" stroke="black" points="603.62,-168.72 610.99,-176.33 609.98,-165.79 603.62,-168.72"/>
<text text-anchor="middle" x="568" y="-138.8" font-family="Helvetica,Arial,sans-serif" font-size="14.00">&#45;569</text>
</g>
<!-- 3 -->
<g id="node9" class="node">
<title>3</title>
<ellipse fill="none" stroke="black" cx="418" cy="-140" rx="18" ry="18"/>
<text text-anchor="middle" x="418" y="-136.3" font-family="Helvetica,Arial,sans-serif" font-size="14.00">3</text>
</g>
<!-- 6&#45;&gt;3 -->
<g id="edge12" class="edge">
<title>6&#45;&gt;3</title>
<path fill="none" stroke="black" d="M501.2,-124.69C495.27,-126.98 488.41,-129.37 482,-131 470.4,-133.95 457.33,-136.01 446.11,-137.41"/>
<polygon fill="black" stroke="black" points="445.58,-133.95 436.04,-138.56 446.37,-140.91 445.58,-133.95"/>
<text text-anchor="middle" x="468" y="-140.8" font-family="Helvetica,Arial,sans-serif" font-size="14.00">433</text>
</g>
<!-- 3&#45;&gt;6 -->
<g id="edge20" class="edge">
<title>3&#45;&gt;6</title>
<path fill="none" stroke="black" d="M430.99,-127.01C437.22,-121.23 445.34,-115.04 454,-112 465.67,-107.91 479.25,-108.57 490.82,-110.6"/>
<polygon fill="black" stroke="black" points="490.24,-114.06 500.75,-112.76 491.72,-107.22 490.24,-114.06"/>
<text text-anchor="middle" x="468" y="-115.8" font-family="Helvetica,Arial,sans-serif" font-size="14.00">&#45;433</text>
</g>
<!-- 3&#45;&gt;9 -->
<g id="edge21" class="edge">
<title>3&#45;&gt;9</title>
<path fill="none" stroke="black" d="M400.12,-143.18C387.1,-146.01 368.86,-150.84 354,-158 349.45,-160.2 344.86,-162.98 340.56,-165.88"/>
<polygon fill="black" stroke="black" points="338.33,-163.17 332.28,-171.87 342.44,-168.85 338.33,-163.17"/>
<text text-anchor="middle" x="368" y="-161.8" font-family="Helvetica,Arial,sans-serif" font-size="14.00">433</text>
</g>
<!-- 9&#45;&gt;4 -->
<g id="edge22" class="edge">
<title>9&#45;&gt;4</title>
<path fill="none" stroke="black" d="M330.71,-196.02C343.8,-210.83 365.35,-235.93 382,-259 389.3,-269.11 396.71,-280.73 402.82,-290.76"/>
<polygon fill="black" stroke="black" points="399.88,-292.66 408.03,-299.43 405.88,-289.05 399.88,-292.66"/>
<text text-anchor="middle" x="368" y="-262.8" font-family="Helvetica,Arial,sans-serif" font-size="14.00">&#45;766</text>
</g>
<!-- 9&#45;&gt;1 -->
<g id="edge24" class="edge">
<title>9&#45;&gt;1</title>
<path fill="none" stroke="black" d="M299.8,-182.12C284.95,-181.36 263.25,-180.26 246.08,-179.38"/>
<polygon fill="black" stroke="black" points="246.24,-175.89 236.07,-178.87 245.88,-182.88 246.24,-175.89"/>
<text text-anchor="middle" x="268" y="-185.8" font-family="Helvetica,Arial,sans-serif" font-size="14.00">&#45;524</text>
</g>
<!-- 9&#45;&gt;3 -->
<g id="edge23" class="edge">
<title>9&#45;&gt;3</title>
<path fill="none" stroke="black" d="M324.98,-166.28C330.43,-153.79 339.82,-137.63 354,-130 365.58,-123.77 379.97,-125.47 392.08,-129.09"/>
<polygon fill="black" stroke="black" points="391,-132.42 401.6,-132.44 393.33,-125.82 391,-132.42"/>
<text text-anchor="middle" x="368" y="-133.8" font-family="Helvetica,Arial,sans-serif" font-size="14.00">&#45;433</text>
</g>
</g>
</svg>
