<?xml version="1.0" encoding="UTF-8" standalone="no"?>
<!DOCTYPE svg PUBLIC "-//W3C//DTD SVG 1.1//EN"
 "http://www.w3.org/Graphics/SVG/1.1/DTD/svg11.dtd">
<!-- Generated by graphviz version 2.42.3 (20191010.1750)
 -->
<!-- Title: finite_state_machine Pages: 1 -->
<svg width="284pt" height="86pt"
 viewBox="0.00 0.00 284.00 86.00" xmlns="http://www.w3.org/2000/svg" xmlns:xlink="http://www.w3.org/1999/xlink">
<g id="graph0" class="graph" transform="scale(1 1) rotate(0) translate(4 82)">
<title>finite_state_machine</title>
<polygon fill="white" stroke="transparent" points="-4,4 -4,-82 280,-82 280,4 -4,4"/>
<!-- 0 -->
<g id="node1" class="node">
<title>0</title>
<ellipse fill="none" stroke="black" cx="18" cy="-25" rx="18" ry="18"/>
<text text-anchor="middle" x="18" y="-21.3" font-family="Helvetica,Arial,sans-serif" font-size="14.00">0</text>
</g>
<!-- 1 -->
<g id="node2" class="node">
<title>1</title>
<ellipse fill="none" stroke="black" cx="98" cy="-60" rx="18" ry="18"/>
<text text-anchor="middle" x="98" y="-56.3" font-family="Helvetica,Arial,sans-serif" font-size="14.00">1</text>
</g>
<!-- 0&#45;&gt;1 -->
<g id="edge1" class="edge">
<title>0&#45;&gt;1</title>
<path fill="none" stroke="black" d="M34.78,-32.08C45.46,-36.87 59.79,-43.3 72.01,-48.78"/>
<polygon fill="black" stroke="black" points="70.68,-52.03 81.24,-52.93 73.55,-45.64 70.68,-52.03"/>
<text text-anchor="middle" x="58" y="-46.8" font-family="Helvetica,Arial,sans-serif" font-size="14.00">2</text>
</g>
<!-- 2 -->
<g id="node3" class="node">
<title>2</title>
<ellipse fill="none" stroke="black" cx="178" cy="-18" rx="18" ry="18"/>
<text text-anchor="middle" x="178" y="-14.3" font-family="Helvetica,Arial,sans-serif" font-size="14.00">2</text>
</g>
<!-- 0&#45;&gt;2 -->
<g id="edge2" class="edge">
<title>0&#45;&gt;2</title>
<path fill="none" stroke="black" d="M36.05,-22.52C48.25,-20.87 65.1,-18.85 80,-18 103.44,-16.66 130.12,-16.78 149.55,-17.17"/>
<polygon fill="black" stroke="black" points="149.73,-20.67 159.81,-17.41 149.9,-13.67 149.73,-20.67"/>
<text text-anchor="middle" x="98" y="-21.8" font-family="Helvetica,Arial,sans-serif" font-size="14.00">4</text>
</g>
<!-- 1&#45;&gt;2 -->
<g id="edge4" class="edge">
<title>1&#45;&gt;2</title>
<path fill="none" stroke="black" d="M114.41,-51.7C125.38,-45.8 140.33,-37.74 152.87,-30.99"/>
<polygon fill="black" stroke="black" points="154.74,-33.96 161.89,-26.14 151.42,-27.8 154.74,-33.96"/>
<text text-anchor="middle" x="138" y="-43.8" font-family="Helvetica,Arial,sans-serif" font-size="14.00">1</text>
</g>
<!-- 3 -->
<g id="node4" class="node">
<title>3</title>
<ellipse fill="none" stroke="black" cx="258" cy="-45" rx="18" ry="18"/>
<text text-anchor="middle" x="258" y="-41.3" font-family="Helvetica,Arial,sans-serif" font-size="14.00">3</text>
</g>
<!-- 1&#45;&gt;3 -->
<g id="edge5" class="edge">
<title>1&#45;&gt;3</title>
<path fill="none" stroke="black" d="M116.17,-59.35C140,-58.3 184.41,-55.86 222,-51 224.57,-50.67 227.24,-50.28 229.9,-49.87"/>
<polygon fill="black" stroke="black" points="230.66,-53.3 239.95,-48.21 229.52,-46.39 230.66,-53.3"/>
<text text-anchor="middle" x="178" y="-59.8" font-family="Helvetica,Arial,sans-serif" font-size="14.00">1</text>
</g>
<!-- 2&#45;&gt;3 -->
<g id="edge3" class="edge">
<title>2&#45;&gt;3</title>
<path fill="none" stroke="black" d="M195.16,-23.59C205.62,-27.21 219.46,-32.01 231.4,-36.14"/>
<polygon fill="black" stroke="black" points="230.26,-39.45 240.86,-39.41 232.55,-32.83 230.26,-39.45"/>
<text text-anchor="middle" x="218" y="-35.8" font-family="Helvetica,Arial,sans-serif" font-size="14.00">5</text>
</g>
</g>
</svg>
