<?xml version="1.0" encoding="UTF-8" standalone="no"?>
<!DOCTYPE svg PUBLIC "-//W3C//DTD SVG 1.1//EN"
 "http://www.w3.org/Graphics/SVG/1.1/DTD/svg11.dtd">
<!-- Generated by graphviz version 2.42.3 (20191010.1750)
 -->
<!-- Title: finite_state_machine Pages: 1 -->
<svg width="468pt" height="158pt"
 viewBox="0.00 0.00 468.00 158.00" xmlns="http://www.w3.org/2000/svg" xmlns:xlink="http://www.w3.org/1999/xlink">
<g id="graph0" class="graph" transform="scale(1 1) rotate(0) translate(4 154)">
<title>finite_state_machine</title>
<polygon fill="white" stroke="transparent" points="-4,4 -4,-154 464,-154 464,4 -4,4"/>
<!-- 0 -->
<g id="node1" class="node">
<title>0</title>
<ellipse fill="none" stroke="black" cx="18" cy="-131" rx="18" ry="18"/>
<text text-anchor="middle" x="18" y="-127.3" font-family="Helvetica,Arial,sans-serif" font-size="14.00">0</text>
</g>
<!-- 1 -->
<g id="node2" class="node">
<title>1</title>
<ellipse fill="none" stroke="black" cx="106" cy="-108" rx="18" ry="18"/>
<text text-anchor="middle" x="106" y="-104.3" font-family="Helvetica,Arial,sans-serif" font-size="14.00">1</text>
</g>
<!-- 0&#45;&gt;1 -->
<g id="edge1" class="edge">
<title>0&#45;&gt;1</title>
<path fill="none" stroke="black" d="M35.58,-126.57C47.72,-123.32 64.44,-118.85 78.42,-115.11"/>
<polygon fill="black" stroke="black" points="79.71,-118.39 88.47,-112.42 77.9,-111.62 79.71,-118.39"/>
<text text-anchor="middle" x="62" y="-124.8" font-family="Helvetica,Arial,sans-serif" font-size="14.00">12</text>
</g>
<!-- 2 -->
<g id="node3" class="node">
<title>2</title>
<ellipse fill="none" stroke="black" cx="274" cy="-105" rx="18" ry="18"/>
<text text-anchor="middle" x="274" y="-101.3" font-family="Helvetica,Arial,sans-serif" font-size="14.00">2</text>
</g>
<!-- 0&#45;&gt;2 -->
<g id="edge2" class="edge">
<title>0&#45;&gt;2</title>
<path fill="none" stroke="black" d="M35.57,-136.17C41.34,-137.73 47.9,-139.23 54,-140 61.05,-140.89 62.9,-140.33 70,-140 133.39,-137.07 149.45,-135.74 212,-125 223.69,-122.99 226.68,-122.55 238,-119 241.18,-118 244.49,-116.85 247.74,-115.63"/>
<polygon fill="black" stroke="black" points="249.13,-118.85 257.16,-111.94 246.57,-112.33 249.13,-118.85"/>
<text text-anchor="middle" x="150" y="-138.8" font-family="Helvetica,Arial,sans-serif" font-size="14.00">11</text>
</g>
<!-- 3 -->
<g id="node4" class="node">
<title>3</title>
<ellipse fill="none" stroke="black" cx="194" cy="-53" rx="18" ry="18"/>
<text text-anchor="middle" x="194" y="-49.3" font-family="Helvetica,Arial,sans-serif" font-size="14.00">3</text>
</g>
<!-- 1&#45;&gt;3 -->
<g id="edge3" class="edge">
<title>1&#45;&gt;3</title>
<path fill="none" stroke="black" d="M120.69,-97.23C127.04,-92.39 134.77,-86.71 142,-82 150.52,-76.44 160.16,-70.81 168.74,-66"/>
<polygon fill="black" stroke="black" points="170.47,-69.04 177.54,-61.15 167.09,-62.91 170.47,-69.04"/>
<text text-anchor="middle" x="150" y="-85.8" font-family="Helvetica,Arial,sans-serif" font-size="14.00">12</text>
</g>
<!-- 2&#45;&gt;1 -->
<g id="edge4" class="edge">
<title>2&#45;&gt;1</title>
<path fill="none" stroke="black" d="M255.7,-105.31C226.9,-105.83 168.85,-106.88 134.42,-107.5"/>
<polygon fill="black" stroke="black" points="134.07,-104.01 124.14,-107.69 134.2,-111.01 134.07,-104.01"/>
<text text-anchor="middle" x="194" y="-109.8" font-family="Helvetica,Arial,sans-serif" font-size="14.00">0</text>
</g>
<!-- 4 -->
<g id="node5" class="node">
<title>4</title>
<ellipse fill="none" stroke="black" cx="362" cy="-48" rx="18" ry="18"/>
<text text-anchor="middle" x="362" y="-44.3" font-family="Helvetica,Arial,sans-serif" font-size="14.00">4</text>
</g>
<!-- 2&#45;&gt;4 -->
<g id="edge5" class="edge">
<title>2&#45;&gt;4</title>
<path fill="none" stroke="black" d="M289.59,-95.33C302.89,-86.52 322.75,-73.35 338.16,-63.14"/>
<polygon fill="black" stroke="black" points="340.22,-65.97 346.63,-57.53 336.36,-60.13 340.22,-65.97"/>
<text text-anchor="middle" x="318" y="-84.8" font-family="Helvetica,Arial,sans-serif" font-size="14.00">11</text>
</g>
<!-- 3&#45;&gt;2 -->
<g id="edge6" class="edge">
<title>3&#45;&gt;2</title>
<path fill="none" stroke="black" d="M209.31,-62.54C220.67,-70.11 236.78,-80.86 249.96,-89.64"/>
<polygon fill="black" stroke="black" points="248.26,-92.71 258.52,-95.35 252.14,-86.89 248.26,-92.71"/>
<text text-anchor="middle" x="234" y="-84.8" font-family="Helvetica,Arial,sans-serif" font-size="14.00">0</text>
</g>
<!-- 5 -->
<g id="node6" class="node">
<title>5</title>
<ellipse fill="none" stroke="black" cx="442" cy="-18" rx="18" ry="18"/>
<text text-anchor="middle" x="442" y="-14.3" font-family="Helvetica,Arial,sans-serif" font-size="14.00">5</text>
</g>
<!-- 3&#45;&gt;5 -->
<g id="edge7" class="edge">
<title>3&#45;&gt;5</title>
<path fill="none" stroke="black" d="M211.81,-48.35C239.24,-40.99 295.41,-26.92 344,-21 367.42,-18.15 394.25,-17.52 413.75,-17.53"/>
<polygon fill="black" stroke="black" points="413.73,-21.03 423.76,-17.6 413.78,-14.03 413.73,-21.03"/>
<text text-anchor="middle" x="318" y="-30.8" font-family="Helvetica,Arial,sans-serif" font-size="14.00">19</text>
</g>
<!-- 4&#45;&gt;3 -->
<g id="edge8" class="edge">
<title>4&#45;&gt;3</title>
<path fill="none" stroke="black" d="M343.7,-48.52C314.9,-49.39 256.85,-51.14 222.42,-52.17"/>
<polygon fill="black" stroke="black" points="222.03,-48.68 212.14,-52.48 222.24,-55.68 222.03,-48.68"/>
<text text-anchor="middle" x="274" y="-55.8" font-family="Helvetica,Arial,sans-serif" font-size="14.00">7</text>
</g>
<!-- 4&#45;&gt;5 -->
<g id="edge9" class="edge">
<title>4&#45;&gt;5</title>
<path fill="none" stroke="black" d="M379.16,-41.78C389.62,-37.76 403.46,-32.44 415.4,-27.85"/>
<polygon fill="black" stroke="black" points="416.78,-31.06 424.86,-24.21 414.27,-24.53 416.78,-31.06"/>
<text text-anchor="middle" x="402" y="-37.8" font-family="Helvetica,Arial,sans-serif" font-size="14.00">4</text>
</g>
</g>
</svg>
